STARTFONT 2.1
FONT -hu-ekezetes-Bold-R-Normal--24-240-75-75-M-1500-ISO10646-1
SIZE 24 75 75
FONTBOUNDINGBOX 15 24 0 -6
STARTPROPERTIES 3
FONT_ASCENT 23
FONT_DESCENT 6
COPYRIGHT "Base glyphs derived from DejaVu Sans Mono Bold (Bitstream Vera / DejaVu license)"
ENDPROPERTIES
CHARS 127

COMMENT ============================================================
COMMENT ASCII (32-126) - alap latin karakterek, szamok, irasjelek (95 glyph)
COMMENT Ha nincs szukseg ra, ez a teljes blokk (STARTCHAR..ENDCHAR)
COMMENT biztonsagosan torolheto a fajl merethez, memoriahoz.
COMMENT ============================================================
STARTCHAR uni0020
COMMENT karakter: ' ' (U+0020)
ENCODING 32
SWIDTH 583 0
DWIDTH 14 0
BBX 14 1 0 -23
BITMAP
0000
ENDCHAR
STARTCHAR uni0021
COMMENT karakter: '!' (U+0021)
ENCODING 33
SWIDTH 583 0
DWIDTH 14 0
BBX 14 18 0 -23
BITMAP
0300
0300
0300
0300
0300
0300
0300
0300
0300
0300
0300
0300
0000
0000
0000
0300
0300
0300
ENDCHAR
STARTCHAR uni0022
COMMENT karakter: '"' (U+0022)
ENCODING 34
SWIDTH 583 0
DWIDTH 14 0
BBX 14 18 0 -23
BITMAP
0CC0
0CC0
0CC0
0CC0
0CC0
0CC0
0CC0
0000
0000
0000
0000
0000
0000
0000
0000
0000
0000
0000
ENDCHAR
STARTCHAR uni0023
COMMENT karakter: '#' (U+0023)
ENCODING 35
SWIDTH 583 0
DWIDTH 14 0
BBX 15 18 0 -23
BITMAP
0318
0310
0230
0630
0630
7FFC
7FFC
0C60
0C60
0C40
08C0
FFF8
FFF8
18C0
1980
3180
3180
3180
ENDCHAR
STARTCHAR uni0024
COMMENT karakter: '$' (U+0024)
ENCODING 36
SWIDTH 583 0
DWIDTH 14 0
BBX 14 22 0 -27
BITMAP
0100
0100
0100
07C0
1FF0
1910
3900
3100
3900
1F00
0FE0
01F0
0138
0118
0118
3138
3FF0
0FC0
0100
0100
0100
0100
ENDCHAR
STARTCHAR uni0025
COMMENT karakter: '%' (U+0025)
ENCODING 37
SWIDTH 583 0
DWIDTH 14 0
BBX 15 18 0 -23
BITMAP
3C00
7E00
6300
C300
6300
7E0C
3C30
0060
0180
0700
0C00
30F0
61F8
018C
010C
018C
01F8
00F0
ENDCHAR
STARTCHAR uni0026
COMMENT karakter: '&' (U+0026)
ENCODING 38
SWIDTH 583 0
DWIDTH 14 0
BBX 15 18 0 -23
BITMAP
0780
0FC0
1C40
1800
1800
1800
1C00
0E00
3E00
330C
638C
61CC
60CC
6078
7038
3878
3FF8
0F8C
ENDCHAR
STARTCHAR uni0027
COMMENT karakter: ''' (U+0027)
ENCODING 39
SWIDTH 583 0
DWIDTH 14 0
BBX 14 18 0 -23
BITMAP
0300
0300
0300
0300
0300
0300
0300
0000
0000
0000
0000
0000
0000
0000
0000
0000
0000
0000
ENDCHAR
STARTCHAR uni0028
COMMENT karakter: '(' (U+0028)
ENCODING 40
SWIDTH 583 0
DWIDTH 14 0
BBX 14 21 0 -26
BITMAP
00C0
00C0
0180
0180
0300
0300
0300
0700
0600
0600
0600
0600
0600
0700
0300
0300
0300
0180
0180
00C0
00C0
ENDCHAR
STARTCHAR uni0029
COMMENT karakter: ')' (U+0029)
ENCODING 41
SWIDTH 583 0
DWIDTH 14 0
BBX 14 21 0 -26
BITMAP
0C00
0600
0600
0300
0300
0380
0180
0180
0180
0180
0180
0180
0180
0180
0180
0380
0300
0300
0600
0600
0C00
ENDCHAR
STARTCHAR uni002A
COMMENT karakter: '*' (U+002A)
ENCODING 42
SWIDTH 583 0
DWIDTH 14 0
BBX 14 18 0 -23
BITMAP
0100
0100
3110
1960
0780
0780
1960
3110
0100
0100
0000
0000
0000
0000
0000
0000
0000
0000
ENDCHAR
STARTCHAR uni002B
COMMENT karakter: '+' (U+002B)
ENCODING 43
SWIDTH 583 0
DWIDTH 14 0
BBX 14 14 0 -23
BITMAP
0300
0300
0300
0300
0300
7FF8
7FF8
0300
0300
0300
0300
0300
0000
0000
ENDCHAR
STARTCHAR uni002C
COMMENT karakter: ',' (U+002C)
ENCODING 44
SWIDTH 583 0
DWIDTH 14 0
BBX 14 7 0 -26
BITMAP
0380
0380
0380
0300
0700
0600
0600
ENDCHAR
STARTCHAR uni002D
COMMENT karakter: '-' (U+002D)
ENCODING 45
SWIDTH 583 0
DWIDTH 14 0
BBX 14 8 0 -23
BITMAP
0FC0
0FC0
0000
0000
0000
0000
0000
0000
ENDCHAR
STARTCHAR uni002E
COMMENT karakter: '.' (U+002E)
ENCODING 46
SWIDTH 583 0
DWIDTH 14 0
BBX 14 4 0 -23
BITMAP
0380
0380
0380
0380
ENDCHAR
STARTCHAR uni002F
COMMENT karakter: '/' (U+002F)
ENCODING 47
SWIDTH 583 0
DWIDTH 14 0
BBX 14 20 0 -25
BITMAP
0030
0030
0060
0060
00E0
00C0
01C0
0180
0380
0300
0300
0600
0600
0C00
0C00
1C00
1800
3800
3000
7000
ENDCHAR
STARTCHAR uni0030
COMMENT karakter: '0' (U+0030)
ENCODING 48
SWIDTH 583 0
DWIDTH 14 0
BBX 14 18 0 -23
BITMAP
0780
0FE0
1C70
3830
3030
3038
3038
3038
3338
3338
3038
3038
3038
3030
3830
1C70
0FE0
0780
ENDCHAR
STARTCHAR uni0031
COMMENT karakter: '1' (U+0031)
ENCODING 49
SWIDTH 583 0
DWIDTH 14 0
BBX 14 18 0 -23
BITMAP
0780
1F80
1980
0180
0180
0180
0180
0180
0180
0180
0180
0180
0180
0180
0180
0180
1FF8
1FF8
ENDCHAR
STARTCHAR uni0032
COMMENT karakter: '2' (U+0032)
ENCODING 50
SWIDTH 583 0
DWIDTH 14 0
BBX 14 18 0 -23
BITMAP
0F80
3FE0
30F0
0070
0030
0030
0030
0070
0060
00C0
0180
0380
0700
0E00
1C00
3800
3FF0
3FF0
ENDCHAR
STARTCHAR uni0033
COMMENT karakter: '3' (U+0033)
ENCODING 51
SWIDTH 583 0
DWIDTH 14 0
BBX 14 18 0 -23
BITMAP
0F80
3FE0
3070
0070
0030
0030
0070
00E0
07C0
07C0
0070
0030
0038
0038
0030
2070
3FE0
1FC0
ENDCHAR
STARTCHAR uni0034
COMMENT karakter: '4' (U+0034)
ENCODING 52
SWIDTH 583 0
DWIDTH 14 0
BBX 14 18 0 -23
BITMAP
00E0
01E0
01E0
0360
0260
0660
0C60
0C60
1860
3860
3060
6060
7FF8
7FF8
0060
0060
0060
0060
ENDCHAR
STARTCHAR uni0035
COMMENT karakter: '5' (U+0035)
ENCODING 53
SWIDTH 583 0
DWIDTH 14 0
BBX 14 18 0 -23
BITMAP
3FE0
3FE0
3800
3800
3800
3800
3F80
3FE0
30F0
0070
0030
0030
0030
0030
0070
20F0
3FE0
1F80
ENDCHAR
STARTCHAR uni0036
COMMENT karakter: '6' (U+0036)
ENCODING 54
SWIDTH 583 0
DWIDTH 14 0
BBX 14 18 0 -23
BITMAP
03C0
0FF0
1C10
1800
3000
3000
33C0
3FE0
3C70
3838
3038
3018
3018
3038
3838
1C70
0FE0
07C0
ENDCHAR
STARTCHAR uni0037
COMMENT karakter: '7' (U+0037)
ENCODING 55
SWIDTH 583 0
DWIDTH 14 0
BBX 14 18 0 -23
BITMAP
3FF8
3FF0
0030
0070
0060
0060
00E0
00C0
00C0
01C0
0180
0380
0300
0300
0700
0600
0E00
0E00
ENDCHAR
STARTCHAR uni0038
COMMENT karakter: '8' (U+0038)
ENCODING 56
SWIDTH 583 0
DWIDTH 14 0
BBX 14 18 0 -23
BITMAP
07C0
1FE0
3870
3830
3030
3030
3830
1870
0FC0
0FE0
3870
3038
3038
3038
3038
3870
1FF0
0FC0
ENDCHAR
STARTCHAR uni0039
COMMENT karakter: '9' (U+0039)
ENCODING 57
SWIDTH 583 0
DWIDTH 14 0
BBX 14 18 0 -23
BITMAP
0F80
1FE0
3870
3030
3030
3038
3038
3038
3038
3878
1FD8
0FB8
0030
0030
0070
10E0
1FC0
0F80
ENDCHAR
STARTCHAR uni003A
COMMENT karakter: ':' (U+003A)
ENCODING 58
SWIDTH 583 0
DWIDTH 14 0
BBX 14 12 0 -23
BITMAP
0380
0380
0380
0380
0000
0000
0000
0000
0380
0380
0380
0380
ENDCHAR
STARTCHAR uni003B
COMMENT karakter: ';' (U+003B)
ENCODING 59
SWIDTH 583 0
DWIDTH 14 0
BBX 14 15 0 -26
BITMAP
0380
0380
0380
0380
0000
0000
0000
0000
0380
0380
0380
0300
0700
0600
0600
ENDCHAR
STARTCHAR uni003C
COMMENT karakter: '<' (U+003C)
ENCODING 60
SWIDTH 583 0
DWIDTH 14 0
BBX 14 13 0 -23
BITMAP
0008
0038
01F8
07C0
3E00
7800
7800
3E00
07C0
01F8
0038
0008
0000
ENDCHAR
STARTCHAR uni003D
COMMENT karakter: '=' (U+003D)
ENCODING 61
SWIDTH 583 0
DWIDTH 14 0
BBX 14 11 0 -23
BITMAP
7FF8
7FF8
0000
0000
0000
7FF8
7FF8
0000
0000
0000
0000
ENDCHAR
STARTCHAR uni003E
COMMENT karakter: '>' (U+003E)
ENCODING 62
SWIDTH 583 0
DWIDTH 14 0
BBX 14 13 0 -23
BITMAP
4000
7800
3E00
0FC0
01F0
0038
0038
01F0
0FC0
3E00
7800
4000
0000
ENDCHAR
STARTCHAR uni003F
COMMENT karakter: '?' (U+003F)
ENCODING 63
SWIDTH 583 0
DWIDTH 14 0
BBX 14 18 0 -23
BITMAP
07C0
1FE0
1870
1030
0030
0030
0060
00E0
01C0
0380
0300
0300
0300
0000
0000
0300
0300
0300
ENDCHAR
STARTCHAR uni0040
COMMENT karakter: '@' (U+0040)
ENCODING 64
SWIDTH 583 0
DWIDTH 14 0
BBX 14 20 0 -27
BITMAP
03E0
0FF0
1C38
3018
700C
61EC
63FC
471C
C60C
C60C
C60C
C60C
471C
63FC
61EC
3000
3800
1C00
0FF0
03F0
ENDCHAR
STARTCHAR uni0041
COMMENT karakter: 'A' (U+0041)
ENCODING 65
SWIDTH 583 0
DWIDTH 14 0
BBX 15 18 0 -23
BITMAP
0380
0780
0780
06C0
0EC0
0CC0
0CE0
0C60
1C60
1860
1870
3830
3FF0
3FF8
7038
7018
601C
601C
ENDCHAR
STARTCHAR uni0042
COMMENT karakter: 'B' (U+0042)
ENCODING 66
SWIDTH 583 0
DWIDTH 14 0
BBX 14 18 0 -23
BITMAP
3FC0
3FE0
3070
3038
3038
3038
3030
3070
3FE0
3FE0
3030
3018
3018
3018
3018
3038
3FF0
3FC0
ENDCHAR
STARTCHAR uni0043
COMMENT karakter: 'C' (U+0043)
ENCODING 67
SWIDTH 583 0
DWIDTH 14 0
BBX 14 18 0 -23
BITMAP
03E0
0FF8
1E18
1800
3800
3800
3000
3000
3000
3000
3000
3000
3800
3800
1800
1E18
0FF8
03E0
ENDCHAR
STARTCHAR uni0044
COMMENT karakter: 'D' (U+0044)
ENCODING 68
SWIDTH 583 0
DWIDTH 14 0
BBX 14 18 0 -23
BITMAP
3F00
3FC0
30E0
3070
3030
3038
3038
3038
3038
3038
3038
3038
3038
3030
3070
30E0
3FC0
3F00
ENDCHAR
STARTCHAR uni0045
COMMENT karakter: 'E' (U+0045)
ENCODING 69
SWIDTH 583 0
DWIDTH 14 0
BBX 14 18 0 -23
BITMAP
3FF8
3FF8
3800
3800
3800
3800
3800
3800
3FF0
3FF0
3800
3800
3800
3800
3800
3800
3FF8
3FF8
ENDCHAR
STARTCHAR uni0046
COMMENT karakter: 'F' (U+0046)
ENCODING 70
SWIDTH 583 0
DWIDTH 14 0
BBX 14 18 0 -23
BITMAP
1FF8
1FF8
1800
1800
1800
1800
1800
1800
1FF0
1FF0
1800
1800
1800
1800
1800
1800
1800
1800
ENDCHAR
STARTCHAR uni0047
COMMENT karakter: 'G' (U+0047)
ENCODING 71
SWIDTH 583 0
DWIDTH 14 0
BBX 14 18 0 -23
BITMAP
03E0
0FF0
1C10
3800
3000
3000
7000
7000
7000
70F8
70F8
7018
3018
3018
3818
1C38
0FF0
03E0
ENDCHAR
STARTCHAR uni0048
COMMENT karakter: 'H' (U+0048)
ENCODING 72
SWIDTH 583 0
DWIDTH 14 0
BBX 14 18 0 -23
BITMAP
3038
3038
3038
3038
3038
3038
3038
3038
3FF8
3FF8
3038
3038
3038
3038
3038
3038
3038
3038
ENDCHAR
STARTCHAR uni0049
COMMENT karakter: 'I' (U+0049)
ENCODING 73
SWIDTH 583 0
DWIDTH 14 0
BBX 14 18 0 -23
BITMAP
3FF0
3FF0
0300
0300
0300
0300
0300
0300
0300
0300
0300
0300
0300
0300
0300
0300
3FF0
3FF0
ENDCHAR
STARTCHAR uni004A
COMMENT karakter: 'J' (U+004A)
ENCODING 74
SWIDTH 583 0
DWIDTH 14 0
BBX 14 18 0 -23
BITMAP
0FE0
0FE0
0060
0060
0060
0060
0060
0060
0060
0060
0060
0060
0060
0060
40E0
70E0
7FC0
1F80
ENDCHAR
STARTCHAR uni004B
COMMENT karakter: 'K' (U+004B)
ENCODING 75
SWIDTH 583 0
DWIDTH 14 0
BBX 15 18 0 -23
BITMAP
301C
3038
3070
30E0
31C0
3380
3700
3F00
3F00
3B80
3180
31C0
30E0
3060
3070
3038
3018
301C
ENDCHAR
STARTCHAR uni004C
COMMENT karakter: 'L' (U+004C)
ENCODING 76
SWIDTH 583 0
DWIDTH 14 0
BBX 14 18 0 -23
BITMAP
1800
1800
1800
1800
1800
1800
1800
1800
1800
1800
1800
1800
1800
1800
1800
1800
1FF8
1FF8
ENDCHAR
STARTCHAR uni004D
COMMENT karakter: 'M' (U+004D)
ENCODING 77
SWIDTH 583 0
DWIDTH 14 0
BBX 14 18 0 -23
BITMAP
7038
7838
7878
7878
6C58
6CD8
64D8
66D8
6698
6398
6398
6318
6018
6018
6018
6018
6018
6018
ENDCHAR
STARTCHAR uni004E
COMMENT karakter: 'N' (U+004E)
ENCODING 78
SWIDTH 583 0
DWIDTH 14 0
BBX 14 18 0 -23
BITMAP
3818
3818
3C18
3C18
3C18
3618
3618
3318
3318
3318
3198
3198
30D8
30F8
30F8
3078
3078
3038
ENDCHAR
STARTCHAR uni004F
COMMENT karakter: 'O' (U+004F)
ENCODING 79
SWIDTH 583 0
DWIDTH 14 0
BBX 14 18 0 -23
BITMAP
07C0
1FE0
1C70
3830
3038
3038
3038
7018
7018
7018
7018
3038
3038
3038
3830
1C70
1FE0
07C0
ENDCHAR
STARTCHAR uni0050
COMMENT karakter: 'P' (U+0050)
ENCODING 80
SWIDTH 583 0
DWIDTH 14 0
BBX 14 18 0 -23
BITMAP
3FC0
3FF0
3878
3838
3818
3818
3838
3878
3FF0
3FC0
3800
3800
3800
3800
3800
3800
3800
3800
ENDCHAR
STARTCHAR uni0051
COMMENT karakter: 'Q' (U+0051)
ENCODING 81
SWIDTH 583 0
DWIDTH 14 0
BBX 14 21 0 -26
BITMAP
07C0
1FE0
1C70
3830
3038
3038
3038
7018
7018
7018
7018
3038
3038
3038
3830
1C70
1FE0
07C0
00E0
0070
0020
ENDCHAR
STARTCHAR uni0052
COMMENT karakter: 'R' (U+0052)
ENCODING 82
SWIDTH 583 0
DWIDTH 14 0
BBX 15 18 0 -23
BITMAP
3FC0
3FE0
3070
3030
3030
3030
3030
3070
3FE0
3FC0
30E0
3060
3070
3030
3038
3018
301C
300C
ENDCHAR
STARTCHAR uni0053
COMMENT karakter: 'S' (U+0053)
ENCODING 83
SWIDTH 583 0
DWIDTH 14 0
BBX 14 18 0 -23
BITMAP
07C0
1FF0
3830
3000
3000
3000
3800
3E00
1FC0
07F0
00F0
0038
0018
0018
0038
2070
3FE0
0FC0
ENDCHAR
STARTCHAR uni0054
COMMENT karakter: 'T' (U+0054)
ENCODING 84
SWIDTH 583 0
DWIDTH 14 0
BBX 14 18 0 -23
BITMAP
7FFC
7FFC
0300
0300
0300
0300
0300
0300
0300
0300
0300
0300
0300
0300
0300
0300
0300
0300
ENDCHAR
STARTCHAR uni0055
COMMENT karakter: 'U' (U+0055)
ENCODING 85
SWIDTH 583 0
DWIDTH 14 0
BBX 14 18 0 -23
BITMAP
3038
3038
3038
3038
3038
3038
3038
3038
3038
3038
3038
3038
3038
3038
3030
3870
1FE0
07C0
ENDCHAR
STARTCHAR uni0056
COMMENT karakter: 'V' (U+0056)
ENCODING 86
SWIDTH 583 0
DWIDTH 14 0
BBX 14 18 0 -23
BITMAP
601C
7018
7018
3038
3030
3830
1830
1870
1860
1C60
0C60
0CE0
0CC0
06C0
06C0
0780
0780
0380
ENDCHAR
STARTCHAR uni0057
COMMENT karakter: 'W' (U+0057)
ENCODING 87
SWIDTH 583 0
DWIDTH 14 0
BBX 15 18 0 -23
BITMAP
C00C
C00C
E00C
600C
600C
638C
639C
6798
6798
6698
36D8
34D8
3CD8
3C70
3C70
3870
3870
1870
ENDCHAR
STARTCHAR uni0058
COMMENT karakter: 'X' (U+0058)
ENCODING 88
SWIDTH 583 0
DWIDTH 14 0
BBX 15 18 0 -23
BITMAP
701C
3038
1830
1C70
0C60
0EC0
07C0
0780
0380
0780
07C0
0EC0
0C60
1870
3830
3038
7018
601C
ENDCHAR
STARTCHAR uni0059
COMMENT karakter: 'Y' (U+0059)
ENCODING 89
SWIDTH 583 0
DWIDTH 14 0
BBX 15 18 0 -23
BITMAP
601C
7018
3038
3830
1860
0C60
0CC0
07C0
0780
0380
0300
0300
0300
0300
0300
0300
0300
0300
ENDCHAR
STARTCHAR uni005A
COMMENT karakter: 'Z' (U+005A)
ENCODING 90
SWIDTH 583 0
DWIDTH 14 0
BBX 14 18 0 -23
BITMAP
3FF8
3FF8
0038
0030
0070
0060
00C0
01C0
0180
0300
0700
0600
0E00
1C00
1800
3800
3FFC
3FFC
ENDCHAR
STARTCHAR uni005B
COMMENT karakter: '[' (U+005B)
ENCODING 91
SWIDTH 583 0
DWIDTH 14 0
BBX 14 21 0 -26
BITMAP
07C0
07C0
0700
0700
0700
0700
0700
0700
0700
0700
0700
0700
0700
0700
0700
0700
0700
0700
0700
07C0
07C0
ENDCHAR
STARTCHAR uni005C
COMMENT karakter: '\' (U+005C)
ENCODING 92
SWIDTH 583 0
DWIDTH 14 0
BBX 14 20 0 -25
BITMAP
7000
3000
3800
1800
1C00
0C00
0C00
0600
0600
0300
0300
0380
0180
01C0
00C0
00E0
0060
0060
0030
0030
ENDCHAR
STARTCHAR uni005D
COMMENT karakter: ']' (U+005D)
ENCODING 93
SWIDTH 583 0
DWIDTH 14 0
BBX 14 21 0 -26
BITMAP
0F80
0F80
0180
0180
0180
0180
0180
0180
0180
0180
0180
0180
0180
0180
0180
0180
0180
0180
0180
0F80
0F80
ENDCHAR
STARTCHAR uni005E
COMMENT karakter: '^' (U+005E)
ENCODING 94
SWIDTH 583 0
DWIDTH 14 0
BBX 14 18 0 -23
BITMAP
0380
0780
0EC0
0CE0
1870
3030
6018
0000
0000
0000
0000
0000
0000
0000
0000
0000
0000
0000
ENDCHAR
STARTCHAR uni005F
COMMENT karakter: '_' (U+005F)
ENCODING 95
SWIDTH 583 0
DWIDTH 14 0
BBX 15 6 0 -29
BITMAP
0000
0000
0000
0000
FFFC
FFFC
ENDCHAR
STARTCHAR uni0060
COMMENT karakter: '`' (U+0060)
ENCODING 96
SWIDTH 583 0
DWIDTH 14 0
BBX 14 19 0 -23
BITMAP
0C00
0600
0300
0100
0000
0000
0000
0000
0000
0000
0000
0000
0000
0000
0000
0000
0000
0000
0000
ENDCHAR
STARTCHAR uni0061
COMMENT karakter: 'a' (U+0061)
ENCODING 97
SWIDTH 583 0
DWIDTH 14 0
BBX 14 13 0 -23
BITMAP
0FC0
1FE0
1070
0030
0030
0FF0
1FF0
3830
3030
3030
38F0
3FF0
0F30
ENDCHAR
STARTCHAR uni0062
COMMENT karakter: 'b' (U+0062)
ENCODING 98
SWIDTH 583 0
DWIDTH 14 0
BBX 14 18 0 -23
BITMAP
3000
3000
3000
3000
3000
33C0
3FE0
3C70
3838
3818
3018
3018
3018
3818
3838
3C70
3FE0
33C0
ENDCHAR
STARTCHAR uni0063
COMMENT karakter: 'c' (U+0063)
ENCODING 99
SWIDTH 583 0
DWIDTH 14 0
BBX 14 13 0 -23
BITMAP
03E0
0FF0
1E10
1800
1800
3800
3800
3800
1800
1800
1E10
0FF0
03E0
ENDCHAR
STARTCHAR uni0064
COMMENT karakter: 'd' (U+0064)
ENCODING 100
SWIDTH 583 0
DWIDTH 14 0
BBX 14 18 0 -23
BITMAP
0030
0030
0030
0030
0030
0F30
1FF0
3870
3070
3030
7030
7030
7030
3030
3070
3870
1FF0
0F30
ENDCHAR
STARTCHAR uni0065
COMMENT karakter: 'e' (U+0065)
ENCODING 101
SWIDTH 583 0
DWIDTH 14 0
BBX 14 13 0 -23
BITMAP
07C0
1FE0
1C70
3038
3018
3FF8
7FF8
3000
3000
3000
1C10
1FF8
07E0
ENDCHAR
STARTCHAR uni0066
COMMENT karakter: 'f' (U+0066)
ENCODING 102
SWIDTH 583 0
DWIDTH 14 0
BBX 14 18 0 -23
BITMAP
00F0
03F0
0300
0300
0300
3FF0
3FF0
0300
0300
0300
0300
0300
0300
0300
0300
0300
0300
0300
ENDCHAR
STARTCHAR uni0067
COMMENT karakter: 'g' (U+0067)
ENCODING 103
SWIDTH 583 0
DWIDTH 14 0
BBX 14 18 0 -28
BITMAP
0F30
1FF0
3870
3070
3030
7030
7030
7030
3030
3070
3870
1FF0
0F30
0030
0030
1060
1FE0
0F80
ENDCHAR
STARTCHAR uni0068
COMMENT karakter: 'h' (U+0068)
ENCODING 104
SWIDTH 583 0
DWIDTH 14 0
BBX 14 18 0 -23
BITMAP
3000
3000
3000
3000
3000
33C0
3FE0
3C70
3830
3830
3030
3030
3030
3030
3030
3030
3030
3030
ENDCHAR
STARTCHAR uni0069
COMMENT karakter: 'i' (U+0069)
ENCODING 105
SWIDTH 583 0
DWIDTH 14 0
BBX 14 18 0 -23
BITMAP
0380
0380
0380
0000
0000
1F80
1F80
0380
0380
0380
0380
0380
0380
0380
0380
0380
3FF8
3FF8
ENDCHAR
STARTCHAR uni006A
COMMENT karakter: 'j' (U+006A)
ENCODING 106
SWIDTH 583 0
DWIDTH 14 0
BBX 14 23 0 -28
BITMAP
0180
0180
0180
0000
0000
1F80
1F80
0180
0180
0180
0180
0180
0180
0180
0180
0180
0180
0180
0180
0180
0380
3F00
3E00
ENDCHAR
STARTCHAR uni006B
COMMENT karakter: 'k' (U+006B)
ENCODING 107
SWIDTH 583 0
DWIDTH 14 0
BBX 15 18 0 -23
BITMAP
1800
1800
1800
1800
1800
1838
1870
18E0
19C0
1B80
1F80
1F80
19C0
18E0
1870
1830
1838
181C
ENDCHAR
STARTCHAR uni006C
COMMENT karakter: 'l' (U+006C)
ENCODING 108
SWIDTH 583 0
DWIDTH 14 0
BBX 14 18 0 -23
BITMAP
3E00
3E00
0600
0600
0600
0600
0600
0600
0600
0600
0600
0600
0600
0700
0700
0300
03F0
01F0
ENDCHAR
STARTCHAR uni006D
COMMENT karakter: 'm' (U+006D)
ENCODING 109
SWIDTH 583 0
DWIDTH 14 0
BBX 14 13 0 -23
BITMAP
6E70
7FF8
7398
6318
6318
6318
6318
6318
6318
6318
6318
6318
6318
ENDCHAR
STARTCHAR uni006E
COMMENT karakter: 'n' (U+006E)
ENCODING 110
SWIDTH 583 0
DWIDTH 14 0
BBX 14 13 0 -23
BITMAP
33C0
3FE0
3C70
3830
3830
3030
3030
3030
3030
3030
3030
3030
3030
ENDCHAR
STARTCHAR uni006F
COMMENT karakter: 'o' (U+006F)
ENCODING 111
SWIDTH 583 0
DWIDTH 14 0
BBX 14 13 0 -23
BITMAP
07C0
1FE0
1870
3830
3038
3038
3018
3038
3038
3830
3870
1FE0
07C0
ENDCHAR
STARTCHAR uni0070
COMMENT karakter: 'p' (U+0070)
ENCODING 112
SWIDTH 583 0
DWIDTH 14 0
BBX 14 18 0 -28
BITMAP
33C0
3FE0
3C70
3838
3838
3018
3018
3018
3838
3838
3C70
3FE0
33C0
3000
3000
3000
3000
3000
ENDCHAR
STARTCHAR uni0071
COMMENT karakter: 'q' (U+0071)
ENCODING 113
SWIDTH 583 0
DWIDTH 14 0
BBX 14 18 0 -28
BITMAP
07B0
1FF0
3870
3030
3030
3030
3030
3030
3030
3030
3870
1FF0
07B0
0030
0030
0030
0030
0030
ENDCHAR
STARTCHAR uni0072
COMMENT karakter: 'r' (U+0072)
ENCODING 114
SWIDTH 583 0
DWIDTH 14 0
BBX 14 13 0 -23
BITMAP
0C78
0DFC
0F00
0E00
0E00
0E00
0C00
0C00
0C00
0C00
0C00
0C00
0C00
ENDCHAR
STARTCHAR uni0073
COMMENT karakter: 's' (U+0073)
ENCODING 115
SWIDTH 583 0
DWIDTH 14 0
BBX 14 13 0 -23
BITMAP
07C0
1FE0
1820
1800
1800
1E00
0FE0
00F0
0030
0030
1070
3FE0
0FC0
ENDCHAR
STARTCHAR uni0074
COMMENT karakter: 't' (U+0074)
ENCODING 116
SWIDTH 583 0
DWIDTH 14 0
BBX 14 17 0 -23
BITMAP
0600
0600
0600
0600
3FF0
3FF0
0600
0600
0600
0600
0600
0600
0600
0600
0700
03F0
01F0
ENDCHAR
STARTCHAR uni0075
COMMENT karakter: 'u' (U+0075)
ENCODING 117
SWIDTH 583 0
DWIDTH 14 0
BBX 14 13 0 -23
BITMAP
3030
3030
3030
3030
3030
3030
3030
3030
3830
3830
1870
1FF0
0F30
ENDCHAR
STARTCHAR uni0076
COMMENT karakter: 'v' (U+0076)
ENCODING 118
SWIDTH 583 0
DWIDTH 14 0
BBX 14 13 0 -23
BITMAP
7018
3018
3030
3830
1870
1860
0C60
0CE0
0CC0
06C0
07C0
0780
0380
ENDCHAR
STARTCHAR uni0077
COMMENT karakter: 'w' (U+0077)
ENCODING 119
SWIDTH 583 0
DWIDTH 14 0
BBX 15 13 0 -23
BITMAP
C00C
C00C
600C
600C
6318
6398
3398
3698
34B0
34F0
3C70
1C70
1860
ENDCHAR
STARTCHAR uni0078
COMMENT karakter: 'x' (U+0078)
ENCODING 120
SWIDTH 583 0
DWIDTH 14 0
BBX 14 13 0 -23
BITMAP
3038
3830
1C60
0CC0
07C0
0380
0380
0780
0EC0
0CE0
1870
3030
7018
ENDCHAR
STARTCHAR uni0079
COMMENT karakter: 'y' (U+0079)
ENCODING 121
SWIDTH 583 0
DWIDTH 14 0
BBX 14 18 0 -28
BITMAP
7018
3018
3038
1830
1830
1C60
0C60
0CE0
06C0
06C0
0780
0380
0380
0300
0300
0600
3E00
3C00
ENDCHAR
STARTCHAR uni007A
COMMENT karakter: 'z' (U+007A)
ENCODING 122
SWIDTH 583 0
DWIDTH 14 0
BBX 14 13 0 -23
BITMAP
1FF0
1FF0
0030
0060
00C0
0180
0300
0700
0600
0C00
1800
3FF0
3FF0
ENDCHAR
STARTCHAR uni007B
COMMENT karakter: '{' (U+007B)
ENCODING 123
SWIDTH 583 0
DWIDTH 14 0
BBX 14 22 0 -27
BITMAP
00F0
01F0
0380
0300
0300
0300
0300
0300
0300
0700
1E00
1E00
0700
0300
0300
0300
0300
0300
0300
0380
01F0
00F0
ENDCHAR
STARTCHAR uni007C
COMMENT karakter: '|' (U+007C)
ENCODING 124
SWIDTH 583 0
DWIDTH 14 0
BBX 14 24 0 -29
BITMAP
0300
0300
0300
0300
0300
0300
0300
0300
0300
0300
0300
0300
0300
0300
0300
0300
0300
0300
0300
0300
0300
0300
0300
0300
ENDCHAR
STARTCHAR uni007D
COMMENT karakter: '}' (U+007D)
ENCODING 125
SWIDTH 583 0
DWIDTH 14 0
BBX 14 22 0 -27
BITMAP
1E00
1F00
0700
0300
0300
0300
0300
0300
0300
0380
01F0
01F0
0380
0300
0300
0300
0300
0300
0300
0700
1F00
1E00
ENDCHAR
STARTCHAR uni007E
COMMENT karakter: '~' (U+007E)
ENCODING 126
SWIDTH 583 0
DWIDTH 14 0
BBX 14 9 0 -23
BITMAP
3F08
7FF8
41F0
0000
0000
0000
0000
0000
0000
ENDCHAR

COMMENT ============================================================
COMMENT Magyar ekezetes KISbetuk (9 glyph)
COMMENT Ha nincs szukseg ra, ez a teljes blokk (STARTCHAR..ENDCHAR)
COMMENT biztonsagosan torolheto a fajl merethez, memoriahoz.
COMMENT ============================================================
STARTCHAR uni00E1
COMMENT karakter: a-aigu (a, hosszu ekezet) (U+00E1)
ENCODING 225
SWIDTH 583 0
DWIDTH 14 0
BBX 14 19 0 -23
BITMAP
00E0
00C0
0180
0300
0000
0000
0FC0
1FE0
1070
0030
0030
0FF0
1FF0
3830
3030
3030
38F0
3FF0
0F30
ENDCHAR
STARTCHAR uni00E9
COMMENT karakter: e-aigu (U+00E9)
ENCODING 233
SWIDTH 583 0
DWIDTH 14 0
BBX 14 19 0 -23
BITMAP
0060
00C0
0180
0300
0000
0000
07C0
1FE0
1C70
3038
3018
3FF8
7FF8
3000
3000
3000
1C10
1FF8
07E0
ENDCHAR
STARTCHAR uni00ED
COMMENT karakter: i-aigu (U+00ED)
ENCODING 237
SWIDTH 583 0
DWIDTH 14 0
BBX 14 19 0 -23
BITMAP
00E0
00C0
0180
0300
0000
0000
1F80
1F80
0380
0380
0380
0380
0380
0380
0380
0380
0380
3FF8
3FF8
ENDCHAR
STARTCHAR uni00F3
COMMENT karakter: o-aigu (U+00F3)
ENCODING 243
SWIDTH 583 0
DWIDTH 14 0
BBX 14 19 0 -23
BITMAP
00E0
00C0
0180
0300
0000
0000
07C0
1FE0
1870
3830
3038
3038
3018
3038
3038
3830
3870
1FE0
07C0
ENDCHAR
STARTCHAR uni00F6
COMMENT karakter: o-umlaut (o, ket pont) (U+00F6)
ENCODING 246
SWIDTH 583 0
DWIDTH 14 0
BBX 14 18 0 -23
BITMAP
0CE0
0CE0
0000
0000
0000
07C0
1FE0
1870
3830
3038
3038
3018
3038
3038
3830
3870
1FE0
07C0
ENDCHAR
STARTCHAR uni0151
COMMENT karakter: o-hungarumlaut (o, dupla ekezet) (U+0151)
ENCODING 337
SWIDTH 583 0
DWIDTH 14 0
BBX 14 19 0 -23
BITMAP
0330
0660
0640
0CC0
0000
0000
07C0
1FE0
1870
3830
3038
3038
3018
3038
3038
3830
3870
1FE0
07C0
ENDCHAR
STARTCHAR uni00FA
COMMENT karakter: u-aigu (U+00FA)
ENCODING 250
SWIDTH 583 0
DWIDTH 14 0
BBX 14 19 0 -23
BITMAP
00E0
00C0
0180
0300
0000
0000
3030
3030
3030
3030
3030
3030
3030
3030
3830
3830
1870
1FF0
0F30
ENDCHAR
STARTCHAR uni00FC
COMMENT karakter: u-umlaut (u, ket pont) (U+00FC)
ENCODING 252
SWIDTH 583 0
DWIDTH 14 0
BBX 14 18 0 -23
BITMAP
0CE0
0CE0
0000
0000
0000
3030
3030
3030
3030
3030
3030
3030
3030
3830
3830
1870
1FF0
0F30
ENDCHAR
STARTCHAR uni0171
COMMENT karakter: u-hungarumlaut (u, dupla ekezet) (U+0171)
ENCODING 369
SWIDTH 583 0
DWIDTH 14 0
BBX 14 19 0 -23
BITMAP
0330
0660
0640
0CC0
0000
0000
3030
3030
3030
3030
3030
3030
3030
3030
3830
3830
1870
1FF0
0F30
ENDCHAR

COMMENT ============================================================
COMMENT Magyar ekezetes NAGYbetuk (9 glyph)
COMMENT Ha nincs szukseg ra, ez a teljes blokk (STARTCHAR..ENDCHAR)
COMMENT biztonsagosan torolheto a fajl merethez, memoriahoz.
COMMENT ============================================================
STARTCHAR uni00C1
COMMENT karakter: A-aigu (nagybetu) (U+00C1)
ENCODING 193
SWIDTH 583 0
DWIDTH 14 0
BBX 15 22 0 -23
BITMAP
01C0
0180
0300
0000
0380
0780
0780
06C0
0EC0
0CC0
0CE0
0C60
1C60
1860
1870
3830
3FF0
3FF8
7038
7018
601C
601C
ENDCHAR
STARTCHAR uni00C9
COMMENT karakter: E-aigu (nagybetu) (U+00C9)
ENCODING 201
SWIDTH 583 0
DWIDTH 14 0
BBX 14 22 0 -23
BITMAP
00C0
0180
0300
0000
3FF8
3FF8
3800
3800
3800
3800
3800
3800
3FF0
3FF0
3800
3800
3800
3800
3800
3800
3FF8
3FF8
ENDCHAR
STARTCHAR uni00CD
COMMENT karakter: I-aigu (nagybetu) (U+00CD)
ENCODING 205
SWIDTH 583 0
DWIDTH 14 0
BBX 14 22 0 -23
BITMAP
01C0
0180
0300
0000
3FF0
3FF0
0300
0300
0300
0300
0300
0300
0300
0300
0300
0300
0300
0300
0300
0300
3FF0
3FF0
ENDCHAR
STARTCHAR uni00D3
COMMENT karakter: O-aigu (nagybetu) (U+00D3)
ENCODING 211
SWIDTH 583 0
DWIDTH 14 0
BBX 14 22 0 -23
BITMAP
01C0
0180
0300
0000
07C0
1FE0
1C70
3830
3038
3038
3038
7018
7018
7018
7018
3038
3038
3038
3830
1C70
1FE0
07C0
ENDCHAR
STARTCHAR uni00D6
COMMENT karakter: O-umlaut (nagybetu) (U+00D6)
ENCODING 214
SWIDTH 583 0
DWIDTH 14 0
BBX 14 21 0 -23
BITMAP
0CE0
0CE0
0000
07C0
1FE0
1C70
3830
3038
3038
3038
7018
7018
7018
7018
3038
3038
3038
3830
1C70
1FE0
07C0
ENDCHAR
STARTCHAR uni0150
COMMENT karakter: O-hungarumlaut (nagybetu) (U+0150)
ENCODING 336
SWIDTH 583 0
DWIDTH 14 0
BBX 14 22 0 -23
BITMAP
0330
0660
0CC0
0000
07C0
1FE0
1C70
3830
3038
3038
3038
7018
7018
7018
7018
3038
3038
3038
3830
1C70
1FE0
07C0
ENDCHAR
STARTCHAR uni00DA
COMMENT karakter: U-aigu (nagybetu) (U+00DA)
ENCODING 218
SWIDTH 583 0
DWIDTH 14 0
BBX 14 22 0 -23
BITMAP
01C0
0180
0300
0000
3038
3038
3038
3038
3038
3038
3038
3038
3038
3038
3038
3038
3038
3038
3030
3870
1FE0
07C0
ENDCHAR
STARTCHAR uni0170
COMMENT karakter: U-hungarumlaut (nagybetu) (U+0170)
ENCODING 368
SWIDTH 583 0
DWIDTH 14 0
BBX 14 22 0 -23
BITMAP
0330
0660
0CC0
0000
3038
3038
3038
3038
3038
3038
3038
3038
3038
3038
3038
3038
3038
3038
3030
3870
1FE0
07C0
ENDCHAR
STARTCHAR uni00DC
COMMENT karakter: U-umlaut (nagybetu) (U+00DC)
ENCODING 220
SWIDTH 583 0
DWIDTH 14 0
BBX 14 21 0 -23
BITMAP
0CE0
0CE0
0000
3038
3038
3038
3038
3038
3038
3038
3038
3038
3038
3038
3038
3038
3038
3030
3870
1FE0
07C0
ENDCHAR

COMMENT ============================================================
COMMENT Bonus: villamos/mertek jelek (opcionalis, torolheto) (6 glyph)
COMMENT Ha nincs szukseg ra, ez a teljes blokk (STARTCHAR..ENDCHAR)
COMMENT biztonsagosan torolheto a fajl merethez, memoriahoz.
COMMENT ============================================================
STARTCHAR uni00B0
COMMENT karakter: fok jel (degree) (U+00B0)
ENCODING 176
SWIDTH 583 0
DWIDTH 14 0
BBX 14 18 0 -23
BITMAP
0780
0CC0
0860
0860
0860
0CC0
0780
0000
0000
0000
0000
0000
0000
0000
0000
0000
0000
0000
ENDCHAR
STARTCHAR uni03A9
COMMENT karakter: Ohm jel (nagy omega) (U+03A9)
ENCODING 937
SWIDTH 583 0
DWIDTH 14 0
BBX 14 17 0 -23
BITMAP
07C0
1FE0
3870
3038
3018
7018
6018
6018
6018
6018
7018
3018
3030
1830
1C60
7CFC
7CFC
ENDCHAR
STARTCHAR uni00B5
COMMENT karakter: mikro jel (mu) (U+00B5)
ENCODING 181
SWIDTH 583 0
DWIDTH 14 0
BBX 14 18 0 -28
BITMAP
3030
3030
3030
3030
3030
3030
3030
3030
3830
3830
3C70
3FFC
339C
3000
3000
3000
3000
3000
ENDCHAR
STARTCHAR uni00B1
COMMENT karakter: plusz-minusz (U+00B1)
ENCODING 177
SWIDTH 583 0
DWIDTH 14 0
BBX 14 14 0 -23
BITMAP
0300
0300
0300
0300
7FF8
7FF8
0300
0300
0300
0300
0000
0000
7FF8
7FF8
ENDCHAR
STARTCHAR uni00D7
COMMENT karakter: szorzas jel (U+00D7)
ENCODING 215
SWIDTH 583 0
DWIDTH 14 0
BBX 14 13 0 -23
BITMAP
1010
3830
1C70
0EE0
07C0
0380
07C0
0EE0
1C70
3830
1010
0000
0000
ENDCHAR
STARTCHAR uni00F7
COMMENT karakter: osztas jel (U+00F7)
ENCODING 247
SWIDTH 583 0
DWIDTH 14 0
BBX 14 14 0 -23
BITMAP
0380
0380
0380
0000
0000
7FF8
7FF8
0000
0000
0380
0380
0380
0000
0000
ENDCHAR

COMMENT ============================================================
COMMENT UI ikonok: menu nyilak, enter, smiley, pipa/X (opcionalis, torolheto) (8 glyph)
COMMENT Ha nincs szukseg ra, ez a teljes blokk (STARTCHAR..ENDCHAR)
COMMENT biztonsagosan torolheto a fajl merethez, memoriahoz.
COMMENT ============================================================
STARTCHAR uni25B6
COMMENT karakter: jobbra mutato teli haromszog (almenu jelzes) (U+25B6)
ENCODING 9654
SWIDTH 583 0
DWIDTH 14 0
BBX 15 15 0 -24
BITMAP
0000
C000
F000
FC00
FF00
FFC0
FFF0
FFFC
FFF8
FFE0
FF80
FE00
F800
E000
8000
ENDCHAR
STARTCHAR uni25C0
COMMENT karakter: balra mutato teli haromszog (vissza jelzes) (U+25C0)
ENCODING 9664
SWIDTH 583 0
DWIDTH 14 0
BBX 15 15 0 -24
BITMAP
0000
0004
001C
007C
01FC
07FC
1FFC
7FFC
3FFC
0FFC
03FC
00FC
003C
000C
0000
ENDCHAR
STARTCHAR uni23CE
COMMENT karakter: enter/return jel (U+23CE)
ENCODING 9166
SWIDTH 583 0
DWIDTH 14 0
BBX 14 14 0 -23
BITMAP
0000
002C
0004
0004
1804
3FC4
4004
4004
6004
3800
1800
0000
0000
0000
ENDCHAR
STARTCHAR uni2191
COMMENT karakter: fel nyil (navigacio) (U+2191)
ENCODING 8593
SWIDTH 583 0
DWIDTH 14 0
BBX 14 13 0 -23
BITMAP
0300
0780
0FC0
0B60
0300
0300
0300
0300
0300
0300
0300
0300
0300
ENDCHAR
STARTCHAR uni2193
COMMENT karakter: le nyil (navigacio) (U+2193)
ENCODING 8595
SWIDTH 583 0
DWIDTH 14 0
BBX 14 13 0 -23
BITMAP
0300
0300
0300
0300
0300
0300
0300
0300
0300
0B60
0FC0
0780
0300
ENDCHAR
STARTCHAR uni263A
COMMENT karakter: smiley / mosolygo arc (U+263A)
ENCODING 9786
SWIDTH 583 0
DWIDTH 14 0
BBX 15 16 0 -23
BITMAP
0300
0FE0
3830
2018
6C48
4C4C
C004
C804
4844
46CC
6108
3018
1C70
0FC0
0000
0000
ENDCHAR
STARTCHAR uni2713
COMMENT karakter: pipa / OK jel (U+2713)
ENCODING 10003
SWIDTH 583 0
DWIDTH 14 0
BBX 14 14 0 -23
BITMAP
0000
0030
0060
00E0
00C0
0180
0300
3300
3600
3C00
3C00
1800
0000
0000
ENDCHAR
STARTCHAR uni2717
COMMENT karakter: X jel / hiba, torles (U+2717)
ENCODING 10007
SWIDTH 583 0
DWIDTH 14 0
BBX 14 16 0 -24
BITMAP
0000
0018
0630
0660
07E0
03C0
0380
0380
07C0
0FC0
1CE0
1860
3800
3000
3000
0000
ENDCHAR

ENDFONT
