STARTFONT 2.1
FONT -hu-ekezetes-Bold-R-Normal--24-240-75-75-M-1500-ISO10646-1
SIZE 24 75 75
FONTBOUNDINGBOX 15 25 0 -6
STARTPROPERTIES 3
FONT_ASCENT 23
FONT_DESCENT 6
COPYRIGHT "Base glyphs derived from DejaVu Sans Mono Bold (Bitstream Vera / DejaVu license)"
ENDPROPERTIES
CHARS 127

COMMENT ============================================================
COMMENT ASCII (32-126) - alap latin karakterek, szamok, irasjelek (95 glyph)
COMMENT Ha nincs szukseg ra, ez a teljes blokk (STARTCHAR..ENDCHAR)
COMMENT biztonsagosan torolheto a fajl merethez, memoriahoz.
COMMENT ============================================================
STARTCHAR uni0020
COMMENT karakter: ' ' (U+0020)
ENCODING 32
SWIDTH 583 0
DWIDTH 14 0
BBX 14 1 0 -23
BITMAP
0000
ENDCHAR
STARTCHAR uni0021
COMMENT karakter: '!' (U+0021)
ENCODING 33
SWIDTH 583 0
DWIDTH 14 0
BBX 14 18 0 -23
BITMAP
0380
0380
0380
0380
0380
0380
0380
0380
0380
0380
0380
0380
0300
0000
0000
0380
0380
0380
ENDCHAR
STARTCHAR uni0022
COMMENT karakter: '"' (U+0022)
ENCODING 34
SWIDTH 583 0
DWIDTH 14 0
BBX 14 18 0 -23
BITMAP
1C70
1C70
1C70
1C70
1C70
1C70
1C70
0000
0000
0000
0000
0000
0000
0000
0000
0000
0000
0000
ENDCHAR
STARTCHAR uni0023
COMMENT karakter: '#' (U+0023)
ENCODING 35
SWIDTH 583 0
DWIDTH 14 0
BBX 15 17 0 -23
BITMAP
0318
0738
0738
0630
7FFC
7FFC
7FFC
0C60
0CE0
1CE0
FFF8
FFF8
FFF8
39C0
39C0
3180
7380
ENDCHAR
STARTCHAR uni0024
COMMENT karakter: '$' (U+0024)
ENCODING 36
SWIDTH 583 0
DWIDTH 14 0
BBX 14 22 0 -27
BITMAP
0300
0300
0300
0FC0
1FF0
3FF0
3B10
3B00
3F00
3F80
1FE0
07F0
0378
0338
3378
3FF0
3FF0
0FC0
0300
0300
0300
0300
ENDCHAR
STARTCHAR uni0025
COMMENT karakter: '%' (U+0025)
ENCODING 37
SWIDTH 583 0
DWIDTH 14 0
BBX 15 18 0 -23
BITMAP
3C00
7E00
6700
E300
6700
7E08
3C38
0060
0180
0600
1C00
3070
41FC
018C
018C
018C
01FC
0070
ENDCHAR
STARTCHAR uni0026
COMMENT karakter: '&' (U+0026)
ENCODING 38
SWIDTH 583 0
DWIDTH 14 0
BBX 15 18 0 -23
BITMAP
07C0
1FE0
1FE0
1C20
1C00
1C00
1E00
1F00
3F00
7F8C
73CC
71DC
F1FC
70F8
78F8
7FF8
3FFC
0FBC
ENDCHAR
STARTCHAR uni0027
COMMENT karakter: ''' (U+0027)
ENCODING 39
SWIDTH 583 0
DWIDTH 14 0
BBX 14 18 0 -23
BITMAP
0380
0380
0380
0380
0380
0380
0380
0000
0000
0000
0000
0000
0000
0000
0000
0000
0000
0000
ENDCHAR
STARTCHAR uni0028
COMMENT karakter: '(' (U+0028)
ENCODING 40
SWIDTH 583 0
DWIDTH 14 0
BBX 14 21 0 -26
BITMAP
00E0
01C0
01C0
0380
0380
0780
0700
0700
0700
0700
0700
0700
0700
0700
0700
0780
0380
0380
01C0
01C0
00E0
ENDCHAR
STARTCHAR uni0029
COMMENT karakter: ')' (U+0029)
ENCODING 41
SWIDTH 583 0
DWIDTH 14 0
BBX 14 21 0 -26
BITMAP
0E00
0E00
0700
0700
0380
0380
0380
03C0
01C0
01C0
01C0
01C0
01C0
03C0
0380
0380
0380
0700
0700
0E00
0E00
ENDCHAR
STARTCHAR uni002A
COMMENT karakter: '*' (U+002A)
ENCODING 42
SWIDTH 583 0
DWIDTH 14 0
BBX 14 18 0 -23
BITMAP
0300
0300
2310
3B38
1FF0
0FC0
0FC0
1FF0
3B38
2310
0300
0300
0000
0000
0000
0000
0000
0000
ENDCHAR
STARTCHAR uni002B
COMMENT karakter: '+' (U+002B)
ENCODING 43
SWIDTH 583 0
DWIDTH 14 0
BBX 14 14 0 -23
BITMAP
0380
0380
0380
0380
0380
7FFC
7FFC
7FFC
0380
0380
0380
0380
0380
0000
ENDCHAR
STARTCHAR uni002C
COMMENT karakter: ',' (U+002C)
ENCODING 44
SWIDTH 583 0
DWIDTH 14 0
BBX 14 8 0 -27
BITMAP
0780
0780
0780
0780
0700
0700
0700
0E00
ENDCHAR
STARTCHAR uni002D
COMMENT karakter: '-' (U+002D)
ENCODING 45
SWIDTH 583 0
DWIDTH 14 0
BBX 14 8 0 -23
BITMAP
0FE0
0FE0
0FE0
0000
0000
0000
0000
0000
ENDCHAR
STARTCHAR uni002E
COMMENT karakter: '.' (U+002E)
ENCODING 46
SWIDTH 583 0
DWIDTH 14 0
BBX 14 4 0 -23
BITMAP
0780
0780
0780
0780
ENDCHAR
STARTCHAR uni002F
COMMENT karakter: '/' (U+002F)
ENCODING 47
SWIDTH 583 0
DWIDTH 14 0
BBX 14 20 0 -25
BITMAP
0038
0030
0070
0070
00E0
00E0
00C0
01C0
0180
0380
0300
0700
0600
0E00
0C00
1C00
1C00
3800
3800
3000
ENDCHAR
STARTCHAR uni0030
COMMENT karakter: '0' (U+0030)
ENCODING 48
SWIDTH 583 0
DWIDTH 14 0
BBX 14 18 0 -23
BITMAP
07C0
0FE0
1FF0
3CF0
3870
3878
3878
7B78
7BB8
7B38
7878
3878
3878
3870
3CF0
1FF0
0FE0
07C0
ENDCHAR
STARTCHAR uni0031
COMMENT karakter: '1' (U+0031)
ENCODING 49
SWIDTH 583 0
DWIDTH 14 0
BBX 14 18 0 -23
BITMAP
0F80
3F80
3F80
1380
0380
0380
0380
0380
0380
0380
0380
0380
0380
0380
0380
3FF8
3FF8
3FF8
ENDCHAR
STARTCHAR uni0032
COMMENT karakter: '2' (U+0032)
ENCODING 50
SWIDTH 583 0
DWIDTH 14 0
BBX 14 18 0 -23
BITMAP
1F80
3FE0
3FF0
20F0
0070
0070
0070
00F0
01E0
01C0
0380
0780
0F00
1E00
3C00
7FF0
7FF0
7FF0
ENDCHAR
STARTCHAR uni0033
COMMENT karakter: '3' (U+0033)
ENCODING 51
SWIDTH 583 0
DWIDTH 14 0
BBX 14 18 0 -23
BITMAP
0FC0
3FE0
3FF0
30F0
0070
0070
00F0
07E0
07C0
07E0
00F0
0078
0038
0078
20F8
7FF0
7FE0
1FC0
ENDCHAR
STARTCHAR uni0034
COMMENT karakter: '4' (U+0034)
ENCODING 52
SWIDTH 583 0
DWIDTH 14 0
BBX 14 18 0 -23
BITMAP
00E0
01E0
03E0
03E0
07E0
0EE0
0EE0
1CE0
18E0
38E0
70E0
7FF8
7FF8
7FF8
00E0
00E0
00E0
00E0
ENDCHAR
STARTCHAR uni0035
COMMENT karakter: '5' (U+0035)
ENCODING 53
SWIDTH 583 0
DWIDTH 14 0
BBX 14 18 0 -23
BITMAP
3FF0
3FF0
3FF0
3800
3800
3800
3F80
3FE0
3FF0
30F0
0078
0078
0078
0078
20F0
3FF0
3FE0
1F80
ENDCHAR
STARTCHAR uni0036
COMMENT karakter: '6' (U+0036)
ENCODING 54
SWIDTH 583 0
DWIDTH 14 0
BBX 14 18 0 -23
BITMAP
03E0
0FF0
1FF0
1E10
3C00
3800
3BC0
3FF0
3FF0
3C78
3C38
3838
3838
3838
3C78
1FF0
0FF0
07C0
ENDCHAR
STARTCHAR uni0037
COMMENT karakter: '7' (U+0037)
ENCODING 55
SWIDTH 583 0
DWIDTH 14 0
BBX 14 18 0 -23
BITMAP
3FF8
3FF8
3FF8
0070
00F0
00E0
00E0
01E0
01C0
03C0
03C0
0380
0780
0700
0700
0F00
0E00
1E00
ENDCHAR
STARTCHAR uni0038
COMMENT karakter: '8' (U+0038)
ENCODING 56
SWIDTH 583 0
DWIDTH 14 0
BBX 14 18 0 -23
BITMAP
07C0
1FE0
3FF0
3C70
3870
3870
3C70
1FE0
0FC0
1FF0
3C70
3838
3838
3838
3C78
3FF0
1FF0
0FC0
ENDCHAR
STARTCHAR uni0039
COMMENT karakter: '9' (U+0039)
ENCODING 57
SWIDTH 583 0
DWIDTH 14 0
BBX 14 18 0 -23
BITMAP
0F80
1FE0
3FF0
3CF0
7870
7878
7878
7878
3CF8
3FF8
1FF8
0F38
0078
0070
20F0
3FE0
3FC0
0F80
ENDCHAR
STARTCHAR uni003A
COMMENT karakter: ':' (U+003A)
ENCODING 58
SWIDTH 583 0
DWIDTH 14 0
BBX 14 12 0 -23
BITMAP
0780
0780
0780
0780
0000
0000
0000
0000
0780
0780
0780
0780
ENDCHAR
STARTCHAR uni003B
COMMENT karakter: ';' (U+003B)
ENCODING 59
SWIDTH 583 0
DWIDTH 14 0
BBX 14 16 0 -27
BITMAP
0780
0780
0780
0780
0000
0000
0000
0000
0780
0780
0780
0780
0780
0700
0700
0E00
ENDCHAR
STARTCHAR uni003C
COMMENT karakter: '<' (U+003C)
ENCODING 60
SWIDTH 583 0
DWIDTH 14 0
BBX 14 14 0 -23
BITMAP
0008
0038
01F8
07F0
3FC0
7E00
7800
7E00
3F80
07F0
01F8
0038
0008
0000
ENDCHAR
STARTCHAR uni003D
COMMENT karakter: '=' (U+003D)
ENCODING 61
SWIDTH 583 0
DWIDTH 14 0
BBX 14 12 0 -23
BITMAP
7FF8
7FF8
7FF8
0000
0000
0000
7FF8
7FF8
7FF8
0000
0000
0000
ENDCHAR
STARTCHAR uni003E
COMMENT karakter: '>' (U+003E)
ENCODING 62
SWIDTH 583 0
DWIDTH 14 0
BBX 14 14 0 -23
BITMAP
4000
7800
7E00
3FC0
07F0
00F8
0038
00F8
07F0
3FC0
7E00
7800
4000
0000
ENDCHAR
STARTCHAR uni003F
COMMENT karakter: '?' (U+003F)
ENCODING 63
SWIDTH 583 0
DWIDTH 14 0
BBX 14 18 0 -23
BITMAP
0FC0
1FE0
1FF0
1070
0070
0070
00F0
01E0
03C0
0380
0780
0700
0700
0700
0000
0700
0700
0700
ENDCHAR
STARTCHAR uni0040
COMMENT karakter: '@' (U+0040)
ENCODING 64
SWIDTH 583 0
DWIDTH 14 0
BBX 14 20 0 -27
BITMAP
07E0
0FF0
3C38
3818
7018
61FC
E3FC
E73C
C61C
C61C
C61C
E61C
E73C
63FC
61FC
7000
3800
1C18
0FF8
03F0
ENDCHAR
STARTCHAR uni0041
COMMENT karakter: 'A' (U+0041)
ENCODING 65
SWIDTH 583 0
DWIDTH 14 0
BBX 15 18 0 -23
BITMAP
0780
07C0
0FC0
0FC0
0FE0
0EE0
1EE0
1CE0
1CF0
1C70
3C70
3FF0
3FF8
3FF8
7838
7838
703C
703C
ENDCHAR
STARTCHAR uni0042
COMMENT karakter: 'B' (U+0042)
ENCODING 66
SWIDTH 583 0
DWIDTH 14 0
BBX 14 18 0 -23
BITMAP
7FC0
7FF0
7FF8
7878
7878
7878
7878
7FF0
7FE0
7FF0
7878
7838
783C
783C
7878
7FF8
7FF0
7FE0
ENDCHAR
STARTCHAR uni0043
COMMENT karakter: 'C' (U+0043)
ENCODING 67
SWIDTH 583 0
DWIDTH 14 0
BBX 14 18 0 -23
BITMAP
03F0
0FF8
0FF8
1E18
3C00
3C00
3C00
3800
3800
3800
3800
3C00
3C00
3C00
1E18
0FF8
0FF8
03F0
ENDCHAR
STARTCHAR uni0044
COMMENT karakter: 'D' (U+0044)
ENCODING 68
SWIDTH 583 0
DWIDTH 14 0
BBX 14 18 0 -23
BITMAP
3F80
3FE0
3FF0
38F0
3878
3878
3838
3838
3838
3838
3838
3838
3878
3878
38F0
3FF0
3FE0
3F80
ENDCHAR
STARTCHAR uni0045
COMMENT karakter: 'E' (U+0045)
ENCODING 69
SWIDTH 583 0
DWIDTH 14 0
BBX 14 18 0 -23
BITMAP
3FF8
3FF8
3FF8
3800
3800
3800
3800
3FF0
3FF0
3FF0
3800
3800
3800
3800
3800
3FF8
3FF8
3FF8
ENDCHAR
STARTCHAR uni0046
COMMENT karakter: 'F' (U+0046)
ENCODING 70
SWIDTH 583 0
DWIDTH 14 0
BBX 14 18 0 -23
BITMAP
3FF8
3FF8
3FF8
3C00
3C00
3C00
3C00
3FF0
3FF0
3FF0
3C00
3C00
3C00
3C00
3C00
3C00
3C00
3C00
ENDCHAR
STARTCHAR uni0047
COMMENT karakter: 'G' (U+0047)
ENCODING 71
SWIDTH 583 0
DWIDTH 14 0
BBX 14 18 0 -23
BITMAP
03E0
0FF8
1FF8
1E18
3C00
3800
3800
7800
78F8
78F8
78F8
3838
3838
3C38
1E38
1FF8
0FF8
03E0
ENDCHAR
STARTCHAR uni0048
COMMENT karakter: 'H' (U+0048)
ENCODING 72
SWIDTH 583 0
DWIDTH 14 0
BBX 14 18 0 -23
BITMAP
3878
3878
3878
3878
3878
3878
3878
3FF8
3FF8
3FF8
3878
3878
3878
3878
3878
3878
3878
3878
ENDCHAR
STARTCHAR uni0049
COMMENT karakter: 'I' (U+0049)
ENCODING 73
SWIDTH 583 0
DWIDTH 14 0
BBX 14 18 0 -23
BITMAP
3FF0
3FF0
3FF0
0780
0780
0780
0780
0780
0780
0780
0780
0780
0780
0780
0780
3FF0
3FF0
3FF0
ENDCHAR
STARTCHAR uni004A
COMMENT karakter: 'J' (U+004A)
ENCODING 74
SWIDTH 583 0
DWIDTH 14 0
BBX 14 18 0 -23
BITMAP
0FF0
0FF0
0FF0
00F0
00F0
00F0
00F0
00F0
00F0
00F0
00F0
00F0
00F0
40F0
71F0
7FE0
7FE0
1F80
ENDCHAR
STARTCHAR uni004B
COMMENT karakter: 'K' (U+004B)
ENCODING 75
SWIDTH 583 0
DWIDTH 14 0
BBX 15 18 0 -23
BITMAP
783C
7878
78F0
78E0
79E0
7BC0
7F80
7F80
7F80
7FC0
7DC0
79E0
78E0
78F0
7878
7878
783C
783C
ENDCHAR
STARTCHAR uni004C
COMMENT karakter: 'L' (U+004C)
ENCODING 76
SWIDTH 583 0
DWIDTH 14 0
BBX 14 18 0 -23
BITMAP
1C00
1C00
1C00
1C00
1C00
1C00
1C00
1C00
1C00
1C00
1C00
1C00
1C00
1C00
1C00
1FF8
1FF8
1FF8
ENDCHAR
STARTCHAR uni004D
COMMENT karakter: 'M' (U+004D)
ENCODING 77
SWIDTH 583 0
DWIDTH 14 0
BBX 14 18 0 -23
BITMAP
7878
7C78
7C78
7CF8
7CF8
7EF8
76F8
77F8
77B8
77B8
73B8
73B8
7038
7038
7038
7038
7038
7038
ENDCHAR
STARTCHAR uni004E
COMMENT karakter: 'N' (U+004E)
ENCODING 78
SWIDTH 583 0
DWIDTH 14 0
BBX 14 18 0 -23
BITMAP
7838
7C38
7C38
7C38
7E38
7E38
7738
7738
7338
73B8
71B8
71B8
71F8
70F8
70F8
70F8
7078
7078
ENDCHAR
STARTCHAR uni004F
COMMENT karakter: 'O' (U+004F)
ENCODING 79
SWIDTH 583 0
DWIDTH 14 0
BBX 14 18 0 -23
BITMAP
07C0
1FE0
1FF0
3CF0
3878
7878
7838
7838
7838
7838
7838
7838
7878
3878
3CF0
1FF0
1FE0
07C0
ENDCHAR
STARTCHAR uni0050
COMMENT karakter: 'P' (U+0050)
ENCODING 80
SWIDTH 583 0
DWIDTH 14 0
BBX 14 18 0 -23
BITMAP
3FC0
3FF0
3FF8
3878
3838
3838
3838
3878
3FF8
3FF0
3FC0
3800
3800
3800
3800
3800
3800
3800
ENDCHAR
STARTCHAR uni0051
COMMENT karakter: 'Q' (U+0051)
ENCODING 81
SWIDTH 583 0
DWIDTH 14 0
BBX 14 21 0 -26
BITMAP
07C0
1FE0
1FF0
3CF0
3878
7878
7838
7838
7838
7838
7838
7838
7878
3878
3CF0
1FF0
1FE0
07E0
00F0
0070
0020
ENDCHAR
STARTCHAR uni0052
COMMENT karakter: 'R' (U+0052)
ENCODING 82
SWIDTH 583 0
DWIDTH 14 0
BBX 15 18 0 -23
BITMAP
3FC0
3FF0
3FF0
38F8
3878
3878
3878
38F0
3FF0
3FC0
3FE0
39E0
38F0
3870
3878
3878
383C
383C
ENDCHAR
STARTCHAR uni0053
COMMENT karakter: 'S' (U+0053)
ENCODING 83
SWIDTH 583 0
DWIDTH 14 0
BBX 14 18 0 -23
BITMAP
0FC0
1FF0
3FF0
3C30
3810
3800
3C00
3F00
1FC0
07F0
01F0
0078
0078
0078
3078
3FF0
3FF0
1FC0
ENDCHAR
STARTCHAR uni0054
COMMENT karakter: 'T' (U+0054)
ENCODING 84
SWIDTH 583 0
DWIDTH 14 0
BBX 14 18 0 -23
BITMAP
7FF8
7FF8
7FF8
0780
0780
0780
0780
0780
0780
0780
0780
0780
0780
0780
0780
0780
0780
0780
ENDCHAR
STARTCHAR uni0055
COMMENT karakter: 'U' (U+0055)
ENCODING 85
SWIDTH 583 0
DWIDTH 14 0
BBX 14 18 0 -23
BITMAP
7838
7838
7838
7838
7838
7838
7838
7838
7838
7838
7838
7838
7838
7878
3C78
3FF0
1FF0
0FC0
ENDCHAR
STARTCHAR uni0056
COMMENT karakter: 'V' (U+0056)
ENCODING 86
SWIDTH 583 0
DWIDTH 14 0
BBX 14 18 0 -23
BITMAP
703C
7038
7838
7838
3878
3878
3870
3C70
1C70
1CF0
1CE0
1CE0
0EE0
0EE0
0FC0
0FC0
0FC0
07C0
ENDCHAR
STARTCHAR uni0057
COMMENT karakter: 'W' (U+0057)
ENCODING 87
SWIDTH 583 0
DWIDTH 14 0
BBX 15 18 0 -23
BITMAP
E01C
E01C
E01C
E01C
601C
739C
739C
779C
7798
77D8
76D8
76D8
7CF8
3CF8
3CF8
3C78
3C78
3870
ENDCHAR
STARTCHAR uni0058
COMMENT karakter: 'X' (U+0058)
ENCODING 88
SWIDTH 583 0
DWIDTH 14 0
BBX 15 18 0 -23
BITMAP
703C
7838
3878
3CF0
1EE0
0FE0
0FC0
07C0
0780
0780
07C0
0FE0
1FE0
1CF0
3C70
3878
7838
703C
ENDCHAR
STARTCHAR uni0059
COMMENT karakter: 'Y' (U+0059)
ENCODING 89
SWIDTH 583 0
DWIDTH 14 0
BBX 15 18 0 -23
BITMAP
F03C
783C
7878
3878
3C70
1CF0
1EE0
0FE0
0FC0
07C0
0780
0780
0780
0780
0780
0780
0780
0780
ENDCHAR
STARTCHAR uni005A
COMMENT karakter: 'Z' (U+005A)
ENCODING 90
SWIDTH 583 0
DWIDTH 14 0
BBX 14 18 0 -23
BITMAP
3FF8
3FF8
3FF8
0078
00F0
00F0
01E0
03C0
03C0
0780
0F00
0F00
1E00
3C00
3C00
7FFC
7FFC
7FFC
ENDCHAR
STARTCHAR uni005B
COMMENT karakter: '[' (U+005B)
ENCODING 91
SWIDTH 583 0
DWIDTH 14 0
BBX 14 21 0 -26
BITMAP
07E0
07E0
0700
0700
0700
0700
0700
0700
0700
0700
0700
0700
0700
0700
0700
0700
0700
0700
0700
07E0
07E0
ENDCHAR
STARTCHAR uni005C
COMMENT karakter: '\' (U+005C)
ENCODING 92
SWIDTH 583 0
DWIDTH 14 0
BBX 14 20 0 -25
BITMAP
3000
3800
3800
1C00
1C00
0C00
0E00
0600
0700
0300
0380
0180
01C0
00C0
00E0
00E0
0070
0070
0030
0038
ENDCHAR
STARTCHAR uni005D
COMMENT karakter: ']' (U+005D)
ENCODING 93
SWIDTH 583 0
DWIDTH 14 0
BBX 14 21 0 -26
BITMAP
0FC0
0FC0
03C0
03C0
03C0
03C0
03C0
03C0
03C0
03C0
03C0
03C0
03C0
03C0
03C0
03C0
03C0
03C0
03C0
0FC0
0FC0
ENDCHAR
STARTCHAR uni005E
COMMENT karakter: '^' (U+005E)
ENCODING 94
SWIDTH 583 0
DWIDTH 14 0
BBX 14 18 0 -23
BITMAP
0780
07C0
0FC0
1FE0
3CF0
3878
7038
0000
0000
0000
0000
0000
0000
0000
0000
0000
0000
0000
ENDCHAR
STARTCHAR uni005F
COMMENT karakter: '_' (U+005F)
ENCODING 95
SWIDTH 583 0
DWIDTH 14 0
BBX 15 6 0 -29
BITMAP
0000
0000
0000
0000
FFFC
FFFC
ENDCHAR
STARTCHAR uni0060
COMMENT karakter: '`' (U+0060)
ENCODING 96
SWIDTH 583 0
DWIDTH 14 0
BBX 14 19 0 -23
BITMAP
1C00
0E00
0700
0380
0000
0000
0000
0000
0000
0000
0000
0000
0000
0000
0000
0000
0000
0000
0000
ENDCHAR
STARTCHAR uni0061
COMMENT karakter: 'a' (U+0061)
ENCODING 97
SWIDTH 583 0
DWIDTH 14 0
BBX 14 13 0 -23
BITMAP
0FC0
3FF0
3FF0
3078
0038
0FF8
3FF8
7FF8
7878
7878
7FF8
3FF8
1F38
ENDCHAR
STARTCHAR uni0062
COMMENT karakter: 'b' (U+0062)
ENCODING 98
SWIDTH 583 0
DWIDTH 14 0
BBX 14 18 0 -23
BITMAP
3800
3800
3800
3800
3800
39E0
3BF0
3FF8
3C78
3C38
3838
3838
3838
3C38
3C78
3FF8
3BF0
39E0
ENDCHAR
STARTCHAR uni0063
COMMENT karakter: 'c' (U+0063)
ENCODING 99
SWIDTH 583 0
DWIDTH 14 0
BBX 14 13 0 -23
BITMAP
03E0
0FF0
1FF0
1E10
3C00
3C00
3800
3C00
3C00
1E10
1FF0
0FF0
03E0
ENDCHAR
STARTCHAR uni0064
COMMENT karakter: 'd' (U+0064)
ENCODING 100
SWIDTH 583 0
DWIDTH 14 0
BBX 14 18 0 -23
BITMAP
0078
0078
0078
0078
0078
0F78
1FF8
3FF8
7CF8
7878
7878
7878
7878
7878
7CF8
3FF8
3FF8
0F78
ENDCHAR
STARTCHAR uni0065
COMMENT karakter: 'e' (U+0065)
ENCODING 101
SWIDTH 583 0
DWIDTH 14 0
BBX 14 13 0 -23
BITMAP
07C0
1FF0
3FF0
3C78
7838
7FF8
7FF8
7FF8
7800
3C18
3FF8
1FF8
07E0
ENDCHAR
STARTCHAR uni0066
COMMENT karakter: 'f' (U+0066)
ENCODING 102
SWIDTH 583 0
DWIDTH 14 0
BBX 14 18 0 -23
BITMAP
01F8
03F8
07F8
0780
0780
3FF8
3FF8
3FF8
0780
0780
0780
0780
0780
0780
0780
0780
0780
0780
ENDCHAR
STARTCHAR uni0067
COMMENT karakter: 'g' (U+0067)
ENCODING 103
SWIDTH 583 0
DWIDTH 14 0
BBX 14 18 0 -28
BITMAP
0F78
1FF8
3FF8
3CF8
7878
7878
7878
7878
7878
3CF8
3FF8
1FF8
0F78
0078
10F8
1FF0
1FE0
0FC0
ENDCHAR
STARTCHAR uni0068
COMMENT karakter: 'h' (U+0068)
ENCODING 104
SWIDTH 583 0
DWIDTH 14 0
BBX 14 18 0 -23
BITMAP
3800
3800
3800
3800
3800
39E0
3FF0
3FF0
3C70
3C78
3878
3878
3878
3878
3878
3878
3878
3878
ENDCHAR
STARTCHAR uni0069
COMMENT karakter: 'i' (U+0069)
ENCODING 105
SWIDTH 583 0
DWIDTH 14 0
BBX 14 20 0 -23
BITMAP
0380
0380
0380
0380
0000
0000
0000
1F80
1F80
1F80
0380
0380
0380
0380
0380
0380
0380
3FFC
3FFC
3FFC
ENDCHAR
STARTCHAR uni006A
COMMENT karakter: 'j' (U+006A)
ENCODING 106
SWIDTH 583 0
DWIDTH 14 0
BBX 14 25 0 -28
BITMAP
01C0
01C0
01C0
01C0
0000
0000
0000
1FC0
1FC0
1FC0
01C0
01C0
01C0
01C0
01C0
01C0
01C0
01C0
01C0
01C0
03C0
03C0
3FC0
3F80
3F00
ENDCHAR
STARTCHAR uni006B
COMMENT karakter: 'k' (U+006B)
ENCODING 107
SWIDTH 583 0
DWIDTH 14 0
BBX 15 18 0 -23
BITMAP
3800
3800
3800
3800
3800
3878
38F0
39E0
3BC0
3F80
3F80
3FC0
3DC0
38E0
38F0
3870
3878
383C
ENDCHAR
STARTCHAR uni006C
COMMENT karakter: 'l' (U+006C)
ENCODING 108
SWIDTH 583 0
DWIDTH 14 0
BBX 14 18 0 -23
BITMAP
7F00
7F00
7F00
0700
0700
0700
0700
0700
0700
0700
0700
0700
0700
0700
0780
07F8
07F8
01F8
ENDCHAR
STARTCHAR uni006D
COMMENT karakter: 'm' (U+006D)
ENCODING 109
SWIDTH 583 0
DWIDTH 14 0
BBX 14 13 0 -23
BITMAP
6E70
7FF8
7FF8
73B8
7398
739C
739C
739C
739C
739C
739C
739C
739C
ENDCHAR
STARTCHAR uni006E
COMMENT karakter: 'n' (U+006E)
ENCODING 110
SWIDTH 583 0
DWIDTH 14 0
BBX 14 13 0 -23
BITMAP
39E0
3FF0
3FF0
3C70
3C78
3878
3878
3878
3878
3878
3878
3878
3878
ENDCHAR
STARTCHAR uni006F
COMMENT karakter: 'o' (U+006F)
ENCODING 111
SWIDTH 583 0
DWIDTH 14 0
BBX 14 13 0 -23
BITMAP
07C0
1FE0
3FF0
3C78
7878
7838
7838
7838
7878
3C78
3FF0
1FE0
07C0
ENDCHAR
STARTCHAR uni0070
COMMENT karakter: 'p' (U+0070)
ENCODING 112
SWIDTH 583 0
DWIDTH 14 0
BBX 14 18 0 -28
BITMAP
39E0
3BF0
3FF8
3C78
3C38
3838
3838
3838
3C38
3C78
3FF8
3BF0
39E0
3800
3800
3800
3800
3800
ENDCHAR
STARTCHAR uni0071
COMMENT karakter: 'q' (U+0071)
ENCODING 113
SWIDTH 583 0
DWIDTH 14 0
BBX 14 18 0 -28
BITMAP
0F78
3FF8
3FF8
7CF8
7878
7878
7878
7878
7878
7CF8
3FF8
3FF8
0F78
0078
0078
0078
0078
0078
ENDCHAR
STARTCHAR uni0072
COMMENT karakter: 'r' (U+0072)
ENCODING 114
SWIDTH 583 0
DWIDTH 14 0
BBX 14 13 0 -23
BITMAP
1E78
1EF8
1FF8
1F00
1E00
1E00
1E00
1E00
1E00
1E00
1E00
1E00
1E00
ENDCHAR
STARTCHAR uni0073
COMMENT karakter: 's' (U+0073)
ENCODING 115
SWIDTH 583 0
DWIDTH 14 0
BBX 14 13 0 -23
BITMAP
0FC0
1FF0
3FF0
3C30
3C00
1F80
1FE0
03F0
0070
3070
3FF0
3FF0
0FC0
ENDCHAR
STARTCHAR uni0074
COMMENT karakter: 't' (U+0074)
ENCODING 116
SWIDTH 583 0
DWIDTH 14 0
BBX 14 17 0 -23
BITMAP
0700
0700
0700
0700
7FF8
7FF8
7FF8
0700
0700
0700
0700
0700
0700
0700
07F8
07F8
01F8
ENDCHAR
STARTCHAR uni0075
COMMENT karakter: 'u' (U+0075)
ENCODING 117
SWIDTH 583 0
DWIDTH 14 0
BBX 14 13 0 -23
BITMAP
3870
3870
3870
3870
3870
3870
3870
3870
3870
3CF0
3FF0
1FF0
0F70
ENDCHAR
STARTCHAR uni0076
COMMENT karakter: 'v' (U+0076)
ENCODING 118
SWIDTH 583 0
DWIDTH 14 0
BBX 14 13 0 -23
BITMAP
7838
7838
3878
3870
3C70
1C70
1CE0
1CE0
0EE0
0FC0
0FC0
07C0
07C0
ENDCHAR
STARTCHAR uni0077
COMMENT karakter: 'w' (U+0077)
ENCODING 119
SWIDTH 583 0
DWIDTH 14 0
BBX 15 13 0 -23
BITMAP
E00C
E01C
E01C
639C
739C
7798
7798
76F8
3EF8
3CF8
3CF8
3CF0
3C70
ENDCHAR
STARTCHAR uni0078
COMMENT karakter: 'x' (U+0078)
ENCODING 120
SWIDTH 583 0
DWIDTH 14 0
BBX 14 13 0 -23
BITMAP
7878
3C70
1CF0
0FE0
0FC0
07C0
0780
07C0
0FE0
1EE0
3CF0
3C78
7838
ENDCHAR
STARTCHAR uni0079
COMMENT karakter: 'y' (U+0079)
ENCODING 121
SWIDTH 583 0
DWIDTH 14 0
BBX 14 18 0 -28
BITMAP
703C
7838
3878
3C70
3C70
1CF0
1EE0
0EE0
0FC0
0FC0
07C0
0780
0380
0780
0700
7F00
7E00
7C00
ENDCHAR
STARTCHAR uni007A
COMMENT karakter: 'z' (U+007A)
ENCODING 122
SWIDTH 583 0
DWIDTH 14 0
BBX 14 13 0 -23
BITMAP
3FF8
3FF8
3FF8
00F0
01E0
03C0
0380
0700
0E00
1C00
3FF8
3FF8
3FF8
ENDCHAR
STARTCHAR uni007B
COMMENT karakter: '{' (U+007B)
ENCODING 123
SWIDTH 583 0
DWIDTH 14 0
BBX 14 22 0 -27
BITMAP
01F0
03F0
0380
0380
0380
0380
0380
0380
0780
0780
3F00
3F00
0700
0780
0380
0380
0380
0380
0380
0380
03F0
01F0
ENDCHAR
STARTCHAR uni007C
COMMENT karakter: '|' (U+007C)
ENCODING 124
SWIDTH 583 0
DWIDTH 14 0
BBX 14 24 0 -29
BITMAP
0380
0380
0380
0380
0380
0380
0380
0380
0380
0380
0380
0380
0380
0380
0380
0380
0380
0380
0380
0380
0380
0380
0380
0380
ENDCHAR
STARTCHAR uni007D
COMMENT karakter: '}' (U+007D)
ENCODING 125
SWIDTH 583 0
DWIDTH 14 0
BBX 14 22 0 -27
BITMAP
3E00
3F00
0780
0780
0380
0380
0380
0380
0380
03C0
01F0
01F0
03C0
0380
0380
0380
0380
0380
0780
0780
3F00
3E00
ENDCHAR
STARTCHAR uni007E
COMMENT karakter: '~' (U+007E)
ENCODING 126
SWIDTH 583 0
DWIDTH 14 0
BBX 14 11 0 -23
BITMAP
0000
3F08
7FF8
7FF8
41F0
0000
0000
0000
0000
0000
0000
ENDCHAR

COMMENT ============================================================
COMMENT Magyar ekezetes KISbetuk (9 glyph)
COMMENT Ha nincs szukseg ra, ez a teljes blokk (STARTCHAR..ENDCHAR)
COMMENT biztonsagosan torolheto a fajl merethez, memoriahoz.
COMMENT ============================================================
STARTCHAR uni00E1
COMMENT karakter: a-aigu (a, hosszu ekezet) (U+00E1)
ENCODING 225
SWIDTH 583 0
DWIDTH 14 0
BBX 14 19 0 -23
BITMAP
00F0
00E0
0180
0300
0000
0000
0FC0
3FF0
3FF0
3078
0038
0FF8
3FF8
7FF8
7878
7878
7FF8
3FF8
1F38
ENDCHAR
STARTCHAR uni00E9
COMMENT karakter: e-aigu (U+00E9)
ENCODING 233
SWIDTH 583 0
DWIDTH 14 0
BBX 14 19 0 -23
BITMAP
0070
00E0
01C0
0380
0000
0000
07C0
1FF0
3FF0
3C78
7838
7FF8
7FF8
7FF8
7800
3C18
3FF8
1FF8
07E0
ENDCHAR
STARTCHAR uni00ED
COMMENT karakter: i-aigu (U+00ED)
ENCODING 237
SWIDTH 583 0
DWIDTH 14 0
BBX 14 19 0 -23
BITMAP
00F0
00E0
0180
0300
0000
0000
1F80
1F80
1F80
0380
0380
0380
0380
0380
0380
0380
3FFC
3FFC
3FFC
ENDCHAR
STARTCHAR uni00F3
COMMENT karakter: o-aigu (U+00F3)
ENCODING 243
SWIDTH 583 0
DWIDTH 14 0
BBX 14 19 0 -23
BITMAP
00F0
00E0
0180
0300
0000
0000
07C0
1FE0
3FF0
3C78
7878
7838
7838
7838
7878
3C78
3FF0
1FE0
07C0
ENDCHAR
STARTCHAR uni00F6
COMMENT karakter: o-umlaut (o, ket pont) (U+00F6)
ENCODING 246
SWIDTH 583 0
DWIDTH 14 0
BBX 14 19 0 -23
BITMAP
0CE0
0CE0
0CE0
0000
0000
0000
07C0
1FE0
3FF0
3C78
7878
7838
7838
7838
7878
3C78
3FF0
1FE0
07C0
ENDCHAR
STARTCHAR uni0151
COMMENT karakter: o-hungarumlaut (o, dupla ekezet) (U+0151)
ENCODING 337
SWIDTH 583 0
DWIDTH 14 0
BBX 14 19 0 -23
BITMAP
0730
0670
0CE0
0CC0
0000
0000
07C0
1FE0
3FF0
3C78
7878
7838
7838
7838
7878
3C78
3FF0
1FE0
07C0
ENDCHAR
STARTCHAR uni00FA
COMMENT karakter: u-aigu (U+00FA)
ENCODING 250
SWIDTH 583 0
DWIDTH 14 0
BBX 14 19 0 -23
BITMAP
00F0
00E0
0180
0300
0000
0000
3870
3870
3870
3870
3870
3870
3870
3870
3870
3CF0
3FF0
1FF0
0F70
ENDCHAR
STARTCHAR uni00FC
COMMENT karakter: u-umlaut (u, ket pont) (U+00FC)
ENCODING 252
SWIDTH 583 0
DWIDTH 14 0
BBX 14 19 0 -23
BITMAP
0CE0
0CE0
0CE0
0000
0000
0000
3870
3870
3870
3870
3870
3870
3870
3870
3870
3CF0
3FF0
1FF0
0F70
ENDCHAR
STARTCHAR uni0171
COMMENT karakter: u-hungarumlaut (u, dupla ekezet) (U+0171)
ENCODING 369
SWIDTH 583 0
DWIDTH 14 0
BBX 14 19 0 -23
BITMAP
0730
0670
0CE0
0CC0
0000
0000
3870
3870
3870
3870
3870
3870
3870
3870
3870
3CF0
3FF0
1FF0
0F70
ENDCHAR

COMMENT ============================================================
COMMENT Magyar ekezetes NAGYbetuk (9 glyph)
COMMENT Ha nincs szukseg ra, ez a teljes blokk (STARTCHAR..ENDCHAR)
COMMENT biztonsagosan torolheto a fajl merethez, memoriahoz.
COMMENT ============================================================
STARTCHAR uni00C1
COMMENT karakter: A-aigu (nagybetu) (U+00C1)
ENCODING 193
SWIDTH 583 0
DWIDTH 14 0
BBX 15 22 0 -23
BITMAP
01E0
0180
0300
0000
0780
07C0
0FC0
0FC0
0FE0
0EE0
1EE0
1CE0
1CF0
1C70
3C70
3FF0
3FF8
3FF8
7838
7838
703C
703C
ENDCHAR
STARTCHAR uni00C9
COMMENT karakter: E-aigu (nagybetu) (U+00C9)
ENCODING 201
SWIDTH 583 0
DWIDTH 14 0
BBX 14 22 0 -23
BITMAP
00E0
01C0
0380
0000
3FF8
3FF8
3FF8
3800
3800
3800
3800
3FF0
3FF0
3FF0
3800
3800
3800
3800
3800
3FF8
3FF8
3FF8
ENDCHAR
STARTCHAR uni00CD
COMMENT karakter: I-aigu (nagybetu) (U+00CD)
ENCODING 205
SWIDTH 583 0
DWIDTH 14 0
BBX 14 22 0 -23
BITMAP
01E0
0180
0300
0000
3FF0
3FF0
3FF0
0780
0780
0780
0780
0780
0780
0780
0780
0780
0780
0780
0780
3FF0
3FF0
3FF0
ENDCHAR
STARTCHAR uni00D3
COMMENT karakter: O-aigu (nagybetu) (U+00D3)
ENCODING 211
SWIDTH 583 0
DWIDTH 14 0
BBX 14 22 0 -23
BITMAP
01E0
0180
0300
0000
07C0
1FE0
1FF0
3CF0
3878
7878
7838
7838
7838
7838
7838
7838
7878
3878
3CF0
1FF0
1FE0
07C0
ENDCHAR
STARTCHAR uni00D6
COMMENT karakter: O-umlaut (nagybetu) (U+00D6)
ENCODING 214
SWIDTH 583 0
DWIDTH 14 0
BBX 14 22 0 -23
BITMAP
0CE0
0CE0
0CE0
0000
07C0
1FE0
1FF0
3CF0
3878
7878
7838
7838
7838
7838
7838
7838
7878
3878
3CF0
1FF0
1FE0
07C0
ENDCHAR
STARTCHAR uni0150
COMMENT karakter: O-hungarumlaut (nagybetu) (U+0150)
ENCODING 336
SWIDTH 583 0
DWIDTH 14 0
BBX 14 22 0 -23
BITMAP
0778
0E60
1CC0
0000
07C0
1FE0
1FF0
3CF0
3878
7878
7838
7838
7838
7838
7838
7838
7878
3878
3CF0
1FF0
1FE0
07C0
ENDCHAR
STARTCHAR uni00DA
COMMENT karakter: U-aigu (nagybetu) (U+00DA)
ENCODING 218
SWIDTH 583 0
DWIDTH 14 0
BBX 14 22 0 -23
BITMAP
01E0
0180
0300
0000
7838
7838
7838
7838
7838
7838
7838
7838
7838
7838
7838
7838
7838
7878
3C78
3FF0
1FF0
0FC0
ENDCHAR
STARTCHAR uni0170
COMMENT karakter: U-hungarumlaut (nagybetu) (U+0170)
ENCODING 368
SWIDTH 583 0
DWIDTH 14 0
BBX 14 22 0 -23
BITMAP
0778
0E60
1CC0
0000
7838
7838
7838
7838
7838
7838
7838
7838
7838
7838
7838
7838
7838
7878
3C78
3FF0
1FF0
0FC0
ENDCHAR
STARTCHAR uni00DC
COMMENT karakter: U-umlaut (nagybetu) (U+00DC)
ENCODING 220
SWIDTH 583 0
DWIDTH 14 0
BBX 14 22 0 -23
BITMAP
0CE0
0CE0
0CE0
0000
7838
7838
7838
7838
7838
7838
7838
7838
7838
7838
7838
7838
7838
7878
3C78
3FF0
1FF0
0FC0
ENDCHAR

COMMENT ============================================================
COMMENT Bonus: villamos/mertek jelek (opcionalis, torolheto) (6 glyph)
COMMENT Ha nincs szukseg ra, ez a teljes blokk (STARTCHAR..ENDCHAR)
COMMENT biztonsagosan torolheto a fajl merethez, memoriahoz.
COMMENT ============================================================
STARTCHAR uni00B0
COMMENT karakter: fok jel (degree) (U+00B0)
ENCODING 176
SWIDTH 583 0
DWIDTH 14 0
BBX 14 18 0 -23
BITMAP
0780
0FC0
0CE0
1860
1860
0CE0
0FC0
0780
0000
0000
0000
0000
0000
0000
0000
0000
0000
0000
ENDCHAR
STARTCHAR uni03A9
COMMENT karakter: Ohm jel (nagy omega) (U+03A9)
ENCODING 937
SWIDTH 583 0
DWIDTH 14 0
BBX 14 17 0 -23
BITMAP
0780
1FE0
1FF0
3CF0
3878
7878
7838
7838
7838
7838
7838
3878
3870
1CF0
1EE0
7EF8
7EF8
ENDCHAR
STARTCHAR uni00B5
COMMENT karakter: mikro jel (mu) (U+00B5)
ENCODING 181
SWIDTH 583 0
DWIDTH 14 0
BBX 14 18 0 -28
BITMAP
3878
3878
3878
3878
3878
3878
3878
3878
3C78
3C78
3FFC
3FFC
3F9C
3800
3800
3800
3800
3800
ENDCHAR
STARTCHAR uni00B1
COMMENT karakter: plusz-minusz (U+00B1)
ENCODING 177
SWIDTH 583 0
DWIDTH 14 0
BBX 14 15 0 -23
BITMAP
0380
0380
0380
0380
7FF8
7FF8
7FF8
0380
0380
0380
0380
0000
7FF8
7FF8
7FF8
ENDCHAR
STARTCHAR uni00D7
COMMENT karakter: szorzas jel (U+00D7)
ENCODING 215
SWIDTH 583 0
DWIDTH 14 0
BBX 14 13 0 -23
BITMAP
1010
3838
3C78
1EF0
0FE0
07C0
07C0
0FE0
1EF0
3C78
3838
1010
0000
ENDCHAR
STARTCHAR uni00F7
COMMENT karakter: osztas jel (U+00F7)
ENCODING 247
SWIDTH 583 0
DWIDTH 14 0
BBX 14 14 0 -23
BITMAP
0780
0780
0780
0780
0000
7FFC
7FFC
7FFC
0000
0000
0780
0780
0780
0780
ENDCHAR

COMMENT ============================================================
COMMENT UI ikonok: menu nyilak, enter, smiley, pipa/X (opcionalis, torolheto) (8 glyph)
COMMENT Ha nincs szukseg ra, ez a teljes blokk (STARTCHAR..ENDCHAR)
COMMENT biztonsagosan torolheto a fajl merethez, memoriahoz.
COMMENT ============================================================
STARTCHAR uni25B6
COMMENT karakter: jobbra mutato teli haromszog (almenu jelzes) (U+25B6)
ENCODING 9654
SWIDTH 583 0
DWIDTH 14 0
BBX 15 15 0 -24
BITMAP
0000
C000
F000
FC00
FF00
FFC0
FFF0
FFFC
FFF8
FFE0
FF80
FE00
F800
E000
8000
ENDCHAR
STARTCHAR uni25C0
COMMENT karakter: balra mutato teli haromszog (vissza jelzes) (U+25C0)
ENCODING 9664
SWIDTH 583 0
DWIDTH 14 0
BBX 15 15 0 -24
BITMAP
0000
0004
001C
007C
01FC
07FC
1FFC
7FFC
3FFC
0FFC
03FC
00FC
003C
000C
0000
ENDCHAR
STARTCHAR uni23CE
COMMENT karakter: enter/return jel (U+23CE)
ENCODING 9166
SWIDTH 583 0
DWIDTH 14 0
BBX 14 14 0 -23
BITMAP
0078
006C
004C
084C
184C
3FCC
600C
C00C
6FFC
3FF8
1800
0800
0000
0000
ENDCHAR
STARTCHAR uni2191
COMMENT karakter: fel nyil (navigacio) (U+2191)
ENCODING 8593
SWIDTH 583 0
DWIDTH 14 0
BBX 14 13 0 -23
BITMAP
0300
0780
0FC0
1FE0
0B80
0380
0380
0380
0380
0380
0380
0380
0380
ENDCHAR
STARTCHAR uni2193
COMMENT karakter: le nyil (navigacio) (U+2193)
ENCODING 8595
SWIDTH 583 0
DWIDTH 14 0
BBX 14 13 0 -23
BITMAP
0300
0380
0380
0380
0380
0380
0380
0380
0B80
1FE0
0FE0
07C0
0380
ENDCHAR
STARTCHAR uni263A
COMMENT karakter: smiley / mosolygo arc (U+263A)
ENCODING 9786
SWIDTH 583 0
DWIDTH 14 0
BBX 15 16 0 -23
BITMAP
0300
0FE0
3830
2018
6C48
4C4C
C004
C804
4844
46CC
6108
3018
1C70
0FC0
0000
0000
ENDCHAR
STARTCHAR uni2713
COMMENT karakter: pipa / OK jel (U+2713)
ENCODING 10003
SWIDTH 583 0
DWIDTH 14 0
BBX 14 14 0 -23
BITMAP
0000
0030
0060
00E0
00C0
0180
0300
3300
3600
3C00
3C00
1800
0000
0000
ENDCHAR
STARTCHAR uni2717
COMMENT karakter: X jel / hiba, torles (U+2717)
ENCODING 10007
SWIDTH 583 0
DWIDTH 14 0
BBX 14 16 0 -24
BITMAP
0000
0018
0630
0660
07E0
03C0
0380
0380
07C0
0FC0
1CE0
1860
3800
3000
3000
0000
ENDCHAR

ENDFONT
