STARTFONT 2.1
FONT -hu-ekezetes-Bold-R-Normal--20-200-75-75-M-1300-ISO10646-1
SIZE 20 75 75
FONTBOUNDINGBOX 13 20 0 -5
STARTPROPERTIES 3
FONT_ASCENT 19
FONT_DESCENT 5
COPYRIGHT "Base glyphs derived from DejaVu Sans Mono Bold (Bitstream Vera / DejaVu license)"
ENDPROPERTIES
CHARS 119

COMMENT ============================================================
COMMENT ASCII (32-126) - alap latin karakterek, szamok, irasjelek (95 glyph)
COMMENT Ha nincs szukseg ra, ez a teljes blokk (STARTCHAR..ENDCHAR)
COMMENT biztonsagosan torolheto a fajl merethez, memoriahoz.
COMMENT ============================================================
STARTCHAR uni0020
COMMENT karakter: ' ' (U+0020)
ENCODING 32
SWIDTH 600 0
DWIDTH 12 0
BBX 12 1 0 -19
BITMAP
0000
ENDCHAR
STARTCHAR uni0021
COMMENT karakter: '!' (U+0021)
ENCODING 33
SWIDTH 600 0
DWIDTH 12 0
BBX 12 15 0 -19
BITMAP
0600
0600
0600
0600
0600
0600
0600
0600
0600
0600
0000
0000
0600
0600
0600
ENDCHAR
STARTCHAR uni0022
COMMENT karakter: '"' (U+0022)
ENCODING 34
SWIDTH 600 0
DWIDTH 12 0
BBX 12 15 0 -19
BITMAP
39C0
39C0
39C0
39C0
39C0
0000
0000
0000
0000
0000
0000
0000
0000
0000
0000
ENDCHAR
STARTCHAR uni0023
COMMENT karakter: '#' (U+0023)
ENCODING 35
SWIDTH 600 0
DWIDTH 12 0
BBX 12 15 0 -19
BITMAP
0660
0E60
0CC0
0CC0
7FF0
7FF0
1980
1980
1980
FFE0
FFE0
3300
3300
7300
6700
ENDCHAR
STARTCHAR uni0024
COMMENT karakter: '$' (U+0024)
ENCODING 36
SWIDTH 600 0
DWIDTH 12 0
BBX 12 18 0 -22
BITMAP
0600
0600
0F80
3FC0
3EC0
3600
3600
3E00
1F80
07C0
06E0
06E0
36E0
3FC0
1F80
0600
0600
0600
ENDCHAR
STARTCHAR uni0025
COMMENT karakter: '%' (U+0025)
ENCODING 37
SWIDTH 600 0
DWIDTH 12 0
BBX 12 15 0 -19
BITMAP
3800
7C00
CC00
CC00
7C20
38E0
0180
0600
1800
71C0
43E0
0330
0330
03E0
01C0
ENDCHAR
STARTCHAR uni0026
COMMENT karakter: '&' (U+0026)
ENCODING 38
SWIDTH 600 0
DWIDTH 12 0
BBX 13 15 0 -19
BITMAP
0F00
1F80
3880
3800
1C00
1C00
3E00
7E30
6730
E3F0
E3E0
61E0
71E0
3FE0
1FF0
ENDCHAR
STARTCHAR uni0027
COMMENT karakter: ''' (U+0027)
ENCODING 39
SWIDTH 600 0
DWIDTH 12 0
BBX 12 15 0 -19
BITMAP
0600
0600
0600
0600
0600
0000
0000
0000
0000
0000
0000
0000
0000
0000
0000
ENDCHAR
STARTCHAR uni0028
COMMENT karakter: '(' (U+0028)
ENCODING 40
SWIDTH 600 0
DWIDTH 12 0
BBX 12 18 0 -22
BITMAP
0380
0300
0700
0600
0600
0E00
0E00
0E00
0E00
0E00
0E00
0E00
0E00
0600
0600
0700
0300
0380
ENDCHAR
STARTCHAR uni0029
COMMENT karakter: ')' (U+0029)
ENCODING 41
SWIDTH 600 0
DWIDTH 12 0
BBX 12 18 0 -22
BITMAP
1C00
0C00
0E00
0600
0700
0700
0700
0700
0300
0300
0700
0700
0700
0700
0600
0E00
0C00
1C00
ENDCHAR
STARTCHAR uni002A
COMMENT karakter: '*' (U+002A)
ENCODING 42
SWIDTH 600 0
DWIDTH 12 0
BBX 12 15 0 -19
BITMAP
0600
0600
2640
3FC0
1F80
1F80
3FC0
2640
0600
0600
0000
0000
0000
0000
0000
ENDCHAR
STARTCHAR uni002B
COMMENT karakter: '+' (U+002B)
ENCODING 43
SWIDTH 600 0
DWIDTH 12 0
BBX 12 11 0 -19
BITMAP
0600
0600
0600
0600
7FE0
7FE0
0600
0600
0600
0600
0000
ENDCHAR
STARTCHAR uni002C
COMMENT karakter: ',' (U+002C)
ENCODING 44
SWIDTH 600 0
DWIDTH 12 0
BBX 12 6 0 -21
BITMAP
0F00
0F00
0E00
0E00
0C00
0C00
ENDCHAR
STARTCHAR uni002D
COMMENT karakter: '-' (U+002D)
ENCODING 45
SWIDTH 600 0
DWIDTH 12 0
BBX 12 7 0 -19
BITMAP
1F80
1F80
1F80
0000
0000
0000
0000
ENDCHAR
STARTCHAR uni002E
COMMENT karakter: '.' (U+002E)
ENCODING 46
SWIDTH 600 0
DWIDTH 12 0
BBX 12 4 0 -19
BITMAP
0F00
0F00
0F00
0F00
ENDCHAR
STARTCHAR uni002F
COMMENT karakter: '/' (U+002F)
ENCODING 47
SWIDTH 600 0
DWIDTH 12 0
BBX 12 16 0 -20
BITMAP
0060
00C0
00C0
0180
0180
0300
0300
0600
0600
0C00
0C00
1800
1800
3000
3000
7000
ENDCHAR
STARTCHAR uni0030
COMMENT karakter: '0' (U+0030)
ENCODING 48
SWIDTH 600 0
DWIDTH 12 0
BBX 12 15 0 -19
BITMAP
0F00
1F80
39C0
38C0
70E0
70E0
70E0
76E0
76E0
70E0
70E0
38C0
39C0
1F80
0F00
ENDCHAR
STARTCHAR uni0031
COMMENT karakter: '1' (U+0031)
ENCODING 49
SWIDTH 600 0
DWIDTH 12 0
BBX 12 15 0 -19
BITMAP
0F00
3F00
3700
0700
0700
0700
0700
0700
0700
0700
0700
0700
0700
3FE0
3FE0
ENDCHAR
STARTCHAR uni0032
COMMENT karakter: '2' (U+0032)
ENCODING 50
SWIDTH 600 0
DWIDTH 12 0
BBX 12 15 0 -19
BITMAP
1F00
7F80
71C0
01C0
01C0
01C0
01C0
0380
0700
0F00
1E00
3C00
3800
7FC0
7FC0
ENDCHAR
STARTCHAR uni0033
COMMENT karakter: '3' (U+0033)
ENCODING 51
SWIDTH 600 0
DWIDTH 12 0
BBX 12 15 0 -19
BITMAP
1F00
3FC0
31C0
00C0
00C0
01C0
0F80
0F80
01C0
00E0
00E0
40E0
61C0
7FC0
1F00
ENDCHAR
STARTCHAR uni0034
COMMENT karakter: '4' (U+0034)
ENCODING 52
SWIDTH 600 0
DWIDTH 12 0
BBX 12 15 0 -19
BITMAP
03C0
03C0
07C0
0FC0
0DC0
19C0
39C0
31C0
61C0
7FE0
7FE0
01C0
01C0
01C0
01C0
ENDCHAR
STARTCHAR uni0035
COMMENT karakter: '5' (U+0035)
ENCODING 53
SWIDTH 600 0
DWIDTH 12 0
BBX 12 15 0 -19
BITMAP
3FC0
3FC0
3000
3000
3000
3F00
3F80
21C0
01C0
00E0
00E0
00C0
61C0
7F80
1F00
ENDCHAR
STARTCHAR uni0036
COMMENT karakter: '6' (U+0036)
ENCODING 54
SWIDTH 600 0
DWIDTH 12 0
BBX 12 15 0 -19
BITMAP
0780
1FC0
3840
3800
3000
7780
7FC0
79E0
78E0
70E0
30E0
38E0
39C0
1FC0
0F80
ENDCHAR
STARTCHAR uni0037
COMMENT karakter: '7' (U+0037)
ENCODING 55
SWIDTH 600 0
DWIDTH 12 0
BBX 12 15 0 -19
BITMAP
7FE0
7FE0
01C0
01C0
03C0
0380
0380
0700
0700
0700
0E00
0E00
0E00
1C00
1C00
ENDCHAR
STARTCHAR uni0038
COMMENT karakter: '8' (U+0038)
ENCODING 56
SWIDTH 600 0
DWIDTH 12 0
BBX 12 15 0 -19
BITMAP
0F00
3FC0
39C0
30C0
30C0
39C0
1F80
1F80
39C0
70E0
70E0
70E0
39C0
3FC0
0F80
ENDCHAR
STARTCHAR uni0039
COMMENT karakter: '9' (U+0039)
ENCODING 57
SWIDTH 600 0
DWIDTH 12 0
BBX 12 15 0 -19
BITMAP
1F00
3F80
39C0
71C0
70E0
70E0
71E0
79E0
3FE0
1EE0
00C0
01C0
21C0
3F80
1E00
ENDCHAR
STARTCHAR uni003A
COMMENT karakter: ':' (U+003A)
ENCODING 58
SWIDTH 600 0
DWIDTH 12 0
BBX 12 10 0 -19
BITMAP
0F00
0F00
0F00
0F00
0000
0000
0F00
0F00
0F00
0F00
ENDCHAR
STARTCHAR uni003B
COMMENT karakter: ';' (U+003B)
ENCODING 59
SWIDTH 600 0
DWIDTH 12 0
BBX 12 12 0 -21
BITMAP
0F00
0F00
0F00
0F00
0000
0000
0F00
0F00
0F00
0E00
0E00
0C00
ENDCHAR
STARTCHAR uni003C
COMMENT karakter: '<' (U+003C)
ENCODING 60
SWIDTH 600 0
DWIDTH 12 0
BBX 12 11 0 -19
BITMAP
0020
01E0
07E0
3F00
7800
7800
3F00
07E0
01E0
0020
0000
ENDCHAR
STARTCHAR uni003D
COMMENT karakter: '=' (U+003D)
ENCODING 61
SWIDTH 600 0
DWIDTH 12 0
BBX 12 9 0 -19
BITMAP
7FE0
7FE0
0000
0000
7FE0
7FE0
0000
0000
0000
ENDCHAR
STARTCHAR uni003E
COMMENT karakter: '>' (U+003E)
ENCODING 62
SWIDTH 600 0
DWIDTH 12 0
BBX 12 11 0 -19
BITMAP
4000
7800
7E00
0FC0
01E0
01E0
0FC0
7F00
7800
4000
0000
ENDCHAR
STARTCHAR uni003F
COMMENT karakter: '?' (U+003F)
ENCODING 63
SWIDTH 600 0
DWIDTH 12 0
BBX 12 15 0 -19
BITMAP
0F80
3FC0
31C0
00C0
01C0
0380
0700
0600
0E00
0E00
0E00
0000
0E00
0E00
0E00
ENDCHAR
STARTCHAR uni0040
COMMENT karakter: '@' (U+0040)
ENCODING 64
SWIDTH 600 0
DWIDTH 12 0
BBX 12 17 0 -22
BITMAP
0F80
1FC0
38E0
7060
63E0
C7E0
CE60
CC60
CC60
CC60
CE60
E7E0
63E0
7000
3860
1FE0
07C0
ENDCHAR
STARTCHAR uni0041
COMMENT karakter: 'A' (U+0041)
ENCODING 65
SWIDTH 600 0
DWIDTH 12 0
BBX 12 15 0 -19
BITMAP
0F00
0F00
0F00
1F80
1F80
1980
1980
39C0
39C0
3FC0
3FE0
70E0
70E0
70E0
E070
ENDCHAR
STARTCHAR uni0042
COMMENT karakter: 'B' (U+0042)
ENCODING 66
SWIDTH 600 0
DWIDTH 12 0
BBX 12 15 0 -19
BITMAP
7F80
7FC0
71E0
70E0
70E0
71C0
7F80
7FC0
70E0
70E0
70E0
70E0
70E0
7FE0
7F80
ENDCHAR
STARTCHAR uni0043
COMMENT karakter: 'C' (U+0043)
ENCODING 67
SWIDTH 600 0
DWIDTH 12 0
BBX 12 15 0 -19
BITMAP
07C0
1FE0
1C60
3800
3800
3800
3800
7000
3800
3800
3800
3800
1C60
1FE0
07C0
ENDCHAR
STARTCHAR uni0044
COMMENT karakter: 'D' (U+0044)
ENCODING 68
SWIDTH 600 0
DWIDTH 12 0
BBX 12 15 0 -19
BITMAP
7F00
7F80
71C0
70E0
70E0
70E0
70E0
70E0
70E0
70E0
70E0
70E0
71C0
7F80
7F00
ENDCHAR
STARTCHAR uni0045
COMMENT karakter: 'E' (U+0045)
ENCODING 69
SWIDTH 600 0
DWIDTH 12 0
BBX 12 15 0 -19
BITMAP
3FE0
3FE0
3800
3800
3800
3800
3FC0
3FC0
3800
3800
3800
3800
3800
3FE0
3FE0
ENDCHAR
STARTCHAR uni0046
COMMENT karakter: 'F' (U+0046)
ENCODING 70
SWIDTH 600 0
DWIDTH 12 0
BBX 12 15 0 -19
BITMAP
3FE0
3FE0
3800
3800
3800
3800
3FC0
3FC0
3800
3800
3800
3800
3800
3800
3800
ENDCHAR
STARTCHAR uni0047
COMMENT karakter: 'G' (U+0047)
ENCODING 71
SWIDTH 600 0
DWIDTH 12 0
BBX 12 15 0 -19
BITMAP
0780
1FE0
3C60
3800
7800
7000
7000
71E0
71E0
7060
7860
3860
3CE0
1FE0
07C0
ENDCHAR
STARTCHAR uni0048
COMMENT karakter: 'H' (U+0048)
ENCODING 72
SWIDTH 600 0
DWIDTH 12 0
BBX 12 15 0 -19
BITMAP
70E0
70E0
70E0
70E0
70E0
70E0
7FE0
7FE0
70E0
70E0
70E0
70E0
70E0
70E0
70E0
ENDCHAR
STARTCHAR uni0049
COMMENT karakter: 'I' (U+0049)
ENCODING 73
SWIDTH 600 0
DWIDTH 12 0
BBX 12 15 0 -19
BITMAP
3FC0
3FC0
0600
0600
0600
0600
0600
0600
0600
0600
0600
0600
0600
3FC0
3FC0
ENDCHAR
STARTCHAR uni004A
COMMENT karakter: 'J' (U+004A)
ENCODING 74
SWIDTH 600 0
DWIDTH 12 0
BBX 12 15 0 -19
BITMAP
1FC0
1FC0
01C0
01C0
01C0
01C0
01C0
01C0
01C0
01C0
01C0
01C0
63C0
7F80
3F00
ENDCHAR
STARTCHAR uni004B
COMMENT karakter: 'K' (U+004B)
ENCODING 75
SWIDTH 600 0
DWIDTH 12 0
BBX 12 15 0 -19
BITMAP
70E0
71E0
71C0
7380
7700
7F00
7F00
7F00
7F80
7380
73C0
71C0
71E0
70E0
7070
ENDCHAR
STARTCHAR uni004C
COMMENT karakter: 'L' (U+004C)
ENCODING 76
SWIDTH 600 0
DWIDTH 12 0
BBX 12 15 0 -19
BITMAP
3800
3800
3800
3800
3800
3800
3800
3800
3800
3800
3800
3800
3800
3FE0
3FE0
ENDCHAR
STARTCHAR uni004D
COMMENT karakter: 'M' (U+004D)
ENCODING 77
SWIDTH 600 0
DWIDTH 12 0
BBX 12 15 0 -19
BITMAP
70E0
79E0
79E0
79E0
79E0
6F60
6F60
6F60
6760
6660
6060
6060
6060
6060
6060
ENDCHAR
STARTCHAR uni004E
COMMENT karakter: 'N' (U+004E)
ENCODING 78
SWIDTH 600 0
DWIDTH 12 0
BBX 12 15 0 -19
BITMAP
70E0
78E0
78E0
7CE0
7CE0
7CE0
76E0
76E0
76E0
73E0
73E0
73E0
71E0
71E0
70E0
ENDCHAR
STARTCHAR uni004F
COMMENT karakter: 'O' (U+004F)
ENCODING 79
SWIDTH 600 0
DWIDTH 12 0
BBX 12 15 0 -19
BITMAP
0F00
1F80
39C0
70E0
70E0
70E0
70E0
70E0
70E0
70E0
70E0
70E0
39C0
1F80
0F00
ENDCHAR
STARTCHAR uni0050
COMMENT karakter: 'P' (U+0050)
ENCODING 80
SWIDTH 600 0
DWIDTH 12 0
BBX 12 15 0 -19
BITMAP
3F80
3FC0
31E0
30E0
30E0
30E0
31E0
3FC0
3F80
3000
3000
3000
3000
3000
3000
ENDCHAR
STARTCHAR uni0051
COMMENT karakter: 'Q' (U+0051)
ENCODING 81
SWIDTH 600 0
DWIDTH 12 0
BBX 12 17 0 -21
BITMAP
0F00
1F80
39C0
70E0
70E0
70E0
70E0
70E0
70E0
70E0
70E0
70E0
39C0
1FC0
0F80
01C0
0080
ENDCHAR
STARTCHAR uni0052
COMMENT karakter: 'R' (U+0052)
ENCODING 82
SWIDTH 600 0
DWIDTH 12 0
BBX 13 15 0 -19
BITMAP
7F80
7FC0
71C0
70E0
70E0
70E0
71C0
7F80
7F80
7380
71C0
71C0
70E0
70E0
7070
ENDCHAR
STARTCHAR uni0053
COMMENT karakter: 'S' (U+0053)
ENCODING 83
SWIDTH 600 0
DWIDTH 12 0
BBX 12 15 0 -19
BITMAP
0F80
3FC0
38C0
7040
7000
7800
3E00
1F80
07C0
01E0
00E0
40E0
71E0
7FC0
1F80
ENDCHAR
STARTCHAR uni0054
COMMENT karakter: 'T' (U+0054)
ENCODING 84
SWIDTH 600 0
DWIDTH 12 0
BBX 12 15 0 -19
BITMAP
7FE0
7FE0
0600
0600
0600
0600
0600
0600
0600
0600
0600
0600
0600
0600
0600
ENDCHAR
STARTCHAR uni0055
COMMENT karakter: 'U' (U+0055)
ENCODING 85
SWIDTH 600 0
DWIDTH 12 0
BBX 12 15 0 -19
BITMAP
70E0
70E0
70E0
70E0
70E0
70E0
70E0
70E0
70E0
70E0
70E0
70E0
79E0
3FC0
1F80
ENDCHAR
STARTCHAR uni0056
COMMENT karakter: 'V' (U+0056)
ENCODING 86
SWIDTH 600 0
DWIDTH 12 0
BBX 12 15 0 -19
BITMAP
70E0
70E0
70E0
70E0
30C0
39C0
39C0
39C0
19C0
1980
1F80
1F80
1F80
0F00
0F00
ENDCHAR
STARTCHAR uni0057
COMMENT karakter: 'W' (U+0057)
ENCODING 87
SWIDTH 600 0
DWIDTH 12 0
BBX 13 15 0 -19
BITMAP
E070
E070
E070
E070
6670
6760
6F60
6F60
6F60
7DE0
79E0
79E0
79E0
39E0
38C0
ENDCHAR
STARTCHAR uni0058
COMMENT karakter: 'X' (U+0058)
ENCODING 88
SWIDTH 600 0
DWIDTH 12 0
BBX 12 15 0 -19
BITMAP
70E0
70E0
39C0
39C0
1F80
1F80
0F00
0F00
0F00
1F80
1F80
39C0
39C0
70E0
7070
ENDCHAR
STARTCHAR uni0059
COMMENT karakter: 'Y' (U+0059)
ENCODING 89
SWIDTH 600 0
DWIDTH 12 0
BBX 12 15 0 -19
BITMAP
E070
70E0
70E0
39C0
39C0
1F80
1F80
0F00
0F00
0600
0600
0600
0600
0600
0600
ENDCHAR
STARTCHAR uni005A
COMMENT karakter: 'Z' (U+005A)
ENCODING 90
SWIDTH 600 0
DWIDTH 12 0
BBX 12 15 0 -19
BITMAP
7FE0
7FE0
01E0
01E0
03C0
0780
0780
0F00
0E00
1E00
3C00
3800
7800
7FE0
7FE0
ENDCHAR
STARTCHAR uni005B
COMMENT karakter: '[' (U+005B)
ENCODING 91
SWIDTH 600 0
DWIDTH 12 0
BBX 12 18 0 -22
BITMAP
0F80
0F80
0E00
0E00
0E00
0E00
0E00
0E00
0E00
0E00
0E00
0E00
0E00
0E00
0E00
0E00
0F80
0F80
ENDCHAR
STARTCHAR uni005C
COMMENT karakter: '\' (U+005C)
ENCODING 92
SWIDTH 600 0
DWIDTH 12 0
BBX 12 16 0 -20
BITMAP
7000
3000
3000
1800
1800
0C00
0C00
0600
0600
0300
0300
0180
0180
00C0
00C0
0060
ENDCHAR
STARTCHAR uni005D
COMMENT karakter: ']' (U+005D)
ENCODING 93
SWIDTH 600 0
DWIDTH 12 0
BBX 12 18 0 -22
BITMAP
1F00
1F00
0700
0700
0700
0700
0700
0700
0700
0700
0700
0700
0700
0700
0700
0700
1F00
1F00
ENDCHAR
STARTCHAR uni005E
COMMENT karakter: '^' (U+005E)
ENCODING 94
SWIDTH 600 0
DWIDTH 12 0
BBX 12 15 0 -19
BITMAP
0F00
0F00
1F80
39C0
6060
0000
0000
0000
0000
0000
0000
0000
0000
0000
0000
ENDCHAR
STARTCHAR uni005F
COMMENT karakter: '_' (U+005F)
ENCODING 95
SWIDTH 600 0
DWIDTH 12 0
BBX 13 5 0 -24
BITMAP
0000
0000
0000
FFF0
FFF0
ENDCHAR
STARTCHAR uni0060
COMMENT karakter: '`' (U+0060)
ENCODING 96
SWIDTH 600 0
DWIDTH 12 0
BBX 12 16 0 -19
BITMAP
3800
1C00
0C00
0600
0000
0000
0000
0000
0000
0000
0000
0000
0000
0000
0000
0000
ENDCHAR
STARTCHAR uni0061
COMMENT karakter: 'a' (U+0061)
ENCODING 97
SWIDTH 600 0
DWIDTH 12 0
BBX 12 11 0 -19
BITMAP
1F80
3FC0
20E0
00E0
1FE0
3FE0
78E0
70E0
71E0
7FE0
1EE0
ENDCHAR
STARTCHAR uni0062
COMMENT karakter: 'b' (U+0062)
ENCODING 98
SWIDTH 600 0
DWIDTH 12 0
BBX 12 15 0 -19
BITMAP
7000
7000
7000
7000
7780
7FC0
79E0
78E0
70E0
70E0
70E0
78E0
79E0
7FC0
7780
ENDCHAR
STARTCHAR uni0063
COMMENT karakter: 'c' (U+0063)
ENCODING 99
SWIDTH 600 0
DWIDTH 12 0
BBX 12 11 0 -19
BITMAP
0780
1FC0
3C40
3800
3800
3800
3800
3800
3C40
1FC0
0F80
ENDCHAR
STARTCHAR uni0064
COMMENT karakter: 'd' (U+0064)
ENCODING 100
SWIDTH 600 0
DWIDTH 12 0
BBX 12 15 0 -19
BITMAP
00E0
00E0
00E0
00E0
1EE0
3FE0
79E0
71E0
70E0
70E0
70E0
71E0
79E0
3FE0
1EE0
ENDCHAR
STARTCHAR uni0065
COMMENT karakter: 'e' (U+0065)
ENCODING 101
SWIDTH 600 0
DWIDTH 12 0
BBX 12 11 0 -19
BITMAP
0F80
3FC0
38E0
70E0
7FE0
7FE0
7000
7000
3820
3FE0
0F80
ENDCHAR
STARTCHAR uni0066
COMMENT karakter: 'f' (U+0066)
ENCODING 102
SWIDTH 600 0
DWIDTH 12 0
BBX 12 15 0 -19
BITMAP
03E0
07E0
0E00
0E00
3FE0
3FE0
0E00
0E00
0E00
0E00
0E00
0E00
0E00
0E00
0E00
ENDCHAR
STARTCHAR uni0067
COMMENT karakter: 'g' (U+0067)
ENCODING 103
SWIDTH 600 0
DWIDTH 12 0
BBX 12 15 0 -23
BITMAP
1EE0
3FE0
39E0
71E0
70E0
70E0
70E0
71E0
79E0
3FE0
1EE0
00E0
21C0
3FC0
1F80
ENDCHAR
STARTCHAR uni0068
COMMENT karakter: 'h' (U+0068)
ENCODING 104
SWIDTH 600 0
DWIDTH 12 0
BBX 12 15 0 -19
BITMAP
3800
3800
3800
3800
3B80
3FC0
39C0
38C0
38C0
38C0
38C0
38C0
38C0
38C0
38C0
ENDCHAR
STARTCHAR uni0069
COMMENT karakter: 'i' (U+0069)
ENCODING 105
SWIDTH 600 0
DWIDTH 12 0
BBX 12 16 0 -19
BITMAP
0700
0700
0700
0000
0000
3F00
3F00
0700
0700
0700
0700
0700
0700
0700
7FE0
7FE0
ENDCHAR
STARTCHAR uni006A
COMMENT karakter: 'j' (U+006A)
ENCODING 106
SWIDTH 600 0
DWIDTH 12 0
BBX 12 20 0 -23
BITMAP
0700
0700
0700
0000
0000
1F00
1F00
0700
0700
0700
0700
0700
0700
0700
0700
0700
0700
0700
7F00
7E00
ENDCHAR
STARTCHAR uni006B
COMMENT karakter: 'k' (U+006B)
ENCODING 107
SWIDTH 600 0
DWIDTH 12 0
BBX 12 15 0 -19
BITMAP
3800
3800
3800
3800
38E0
39C0
3B80
3F00
3F00
3F00
3B80
3B80
39C0
38E0
38E0
ENDCHAR
STARTCHAR uni006C
COMMENT karakter: 'l' (U+006C)
ENCODING 108
SWIDTH 600 0
DWIDTH 12 0
BBX 12 15 0 -19
BITMAP
7E00
7E00
0E00
0E00
0E00
0E00
0E00
0E00
0E00
0E00
0E00
0E00
0E00
0FE0
07E0
ENDCHAR
STARTCHAR uni006D
COMMENT karakter: 'm' (U+006D)
ENCODING 109
SWIDTH 600 0
DWIDTH 12 0
BBX 12 11 0 -19
BITMAP
7DC0
7FE0
6660
6660
6660
6660
6660
6660
6660
6660
6660
ENDCHAR
STARTCHAR uni006E
COMMENT karakter: 'n' (U+006E)
ENCODING 110
SWIDTH 600 0
DWIDTH 12 0
BBX 12 11 0 -19
BITMAP
3B80
3FC0
39C0
38C0
38C0
38C0
38C0
38C0
38C0
38C0
38C0
ENDCHAR
STARTCHAR uni006F
COMMENT karakter: 'o' (U+006F)
ENCODING 111
SWIDTH 600 0
DWIDTH 12 0
BBX 12 11 0 -19
BITMAP
0F00
3FC0
39C0
70E0
70E0
70E0
70E0
70E0
39C0
3FC0
0F00
ENDCHAR
STARTCHAR uni0070
COMMENT karakter: 'p' (U+0070)
ENCODING 112
SWIDTH 600 0
DWIDTH 12 0
BBX 12 15 0 -23
BITMAP
7780
7FC0
79E0
78E0
70E0
70E0
70E0
78E0
79E0
7FC0
7780
7000
7000
7000
7000
ENDCHAR
STARTCHAR uni0071
COMMENT karakter: 'q' (U+0071)
ENCODING 113
SWIDTH 600 0
DWIDTH 12 0
BBX 12 15 0 -23
BITMAP
1EE0
3FE0
79E0
71E0
70E0
70E0
70E0
71E0
79E0
3FE0
1EE0
00E0
00E0
00E0
00E0
ENDCHAR
STARTCHAR uni0072
COMMENT karakter: 'r' (U+0072)
ENCODING 114
SWIDTH 600 0
DWIDTH 12 0
BBX 12 11 0 -19
BITMAP
1DE0
1FE0
1E20
1C00
1C00
1C00
1C00
1C00
1C00
1C00
1C00
ENDCHAR
STARTCHAR uni0073
COMMENT karakter: 's' (U+0073)
ENCODING 115
SWIDTH 600 0
DWIDTH 12 0
BBX 12 11 0 -19
BITMAP
0F00
3FC0
3840
3800
3E00
1F80
07C0
00C0
21C0
3FC0
1F80
ENDCHAR
STARTCHAR uni0074
COMMENT karakter: 't' (U+0074)
ENCODING 116
SWIDTH 600 0
DWIDTH 12 0
BBX 12 14 0 -19
BITMAP
0E00
0E00
0E00
7FC0
7FC0
0E00
0E00
0E00
0E00
0E00
0E00
0E00
0FC0
07C0
ENDCHAR
STARTCHAR uni0075
COMMENT karakter: 'u' (U+0075)
ENCODING 117
SWIDTH 600 0
DWIDTH 12 0
BBX 12 11 0 -19
BITMAP
31C0
31C0
31C0
31C0
31C0
31C0
31C0
31C0
39C0
3FC0
1FC0
ENDCHAR
STARTCHAR uni0076
COMMENT karakter: 'v' (U+0076)
ENCODING 118
SWIDTH 600 0
DWIDTH 12 0
BBX 12 11 0 -19
BITMAP
70E0
70E0
30C0
39C0
39C0
19C0
1980
1F80
1F80
0F00
0F00
ENDCHAR
STARTCHAR uni0077
COMMENT karakter: 'w' (U+0077)
ENCODING 119
SWIDTH 600 0
DWIDTH 12 0
BBX 13 11 0 -19
BITMAP
C030
E070
E070
6660
6660
6F60
6F60
7DE0
39E0
39C0
39C0
ENDCHAR
STARTCHAR uni0078
COMMENT karakter: 'x' (U+0078)
ENCODING 120
SWIDTH 600 0
DWIDTH 12 0
BBX 12 11 0 -19
BITMAP
70E0
39C0
1F80
1F80
0F00
0F00
0F00
1F80
39C0
39C0
70E0
ENDCHAR
STARTCHAR uni0079
COMMENT karakter: 'y' (U+0079)
ENCODING 121
SWIDTH 600 0
DWIDTH 12 0
BBX 12 15 0 -23
BITMAP
70E0
70E0
30E0
39C0
39C0
1D80
1F80
1F80
0F00
0F00
0700
0E00
0E00
7C00
7800
ENDCHAR
STARTCHAR uni007A
COMMENT karakter: 'z' (U+007A)
ENCODING 122
SWIDTH 600 0
DWIDTH 12 0
BBX 12 11 0 -19
BITMAP
3FE0
3FE0
01C0
03C0
0780
0F00
1E00
1C00
3800
3FE0
3FE0
ENDCHAR
STARTCHAR uni007B
COMMENT karakter: '{' (U+007B)
ENCODING 123
SWIDTH 600 0
DWIDTH 12 0
BBX 12 18 0 -22
BITMAP
03C0
07C0
0700
0600
0600
0600
0600
0E00
3C00
3C00
0E00
0600
0600
0600
0600
0700
07C0
03C0
ENDCHAR
STARTCHAR uni007C
COMMENT karakter: '|' (U+007C)
ENCODING 124
SWIDTH 600 0
DWIDTH 12 0
BBX 12 20 0 -24
BITMAP
0600
0600
0600
0600
0600
0600
0600
0600
0600
0600
0600
0600
0600
0600
0600
0600
0600
0600
0600
0600
ENDCHAR
STARTCHAR uni007D
COMMENT karakter: '}' (U+007D)
ENCODING 125
SWIDTH 600 0
DWIDTH 12 0
BBX 12 18 0 -22
BITMAP
3C00
3E00
0E00
0600
0600
0600
0600
0700
03C0
03C0
0700
0600
0600
0600
0600
0E00
3E00
3C00
ENDCHAR
STARTCHAR uni007E
COMMENT karakter: '~' (U+007E)
ENCODING 126
SWIDTH 600 0
DWIDTH 12 0
BBX 12 9 0 -19
BITMAP
0000
3C20
7FE0
43C0
0000
0000
0000
0000
0000
ENDCHAR

COMMENT ============================================================
COMMENT Magyar ekezetes KISbetuk (9 glyph)
COMMENT Ha nincs szukseg ra, ez a teljes blokk (STARTCHAR..ENDCHAR)
COMMENT biztonsagosan torolheto a fajl merethez, memoriahoz.
COMMENT ============================================================
STARTCHAR uni00E1
COMMENT karakter: a-aigu (a, hosszu ekezet) (U+00E1)
ENCODING 225
SWIDTH 600 0
DWIDTH 12 0
BBX 12 16 0 -19
BITMAP
01C0
0380
0300
0600
0000
1F80
3FC0
20E0
00E0
1FE0
3FE0
78E0
70E0
71E0
7FE0
1EE0
ENDCHAR
STARTCHAR uni00E9
COMMENT karakter: e-aigu (U+00E9)
ENCODING 233
SWIDTH 600 0
DWIDTH 12 0
BBX 12 16 0 -19
BITMAP
01C0
0180
0300
0600
0000
0F80
3FC0
38E0
70E0
7FE0
7FE0
7000
7000
3820
3FE0
0F80
ENDCHAR
STARTCHAR uni00ED
COMMENT karakter: i-aigu (U+00ED)
ENCODING 237
SWIDTH 600 0
DWIDTH 12 0
BBX 12 16 0 -19
BITMAP
01C0
0380
0300
0600
0000
3F00
3F00
0700
0700
0700
0700
0700
0700
0700
7FE0
7FE0
ENDCHAR
STARTCHAR uni00F3
COMMENT karakter: o-aigu (U+00F3)
ENCODING 243
SWIDTH 600 0
DWIDTH 12 0
BBX 12 16 0 -19
BITMAP
01C0
0380
0300
0600
0000
0F00
3FC0
39C0
70E0
70E0
70E0
70E0
70E0
39C0
3FC0
0F00
ENDCHAR
STARTCHAR uni00F6
COMMENT karakter: o-umlaut (o, ket pont) (U+00F6)
ENCODING 246
SWIDTH 600 0
DWIDTH 12 0
BBX 12 15 0 -19
BITMAP
1980
1980
0000
0000
0F00
3FC0
39C0
70E0
70E0
70E0
70E0
70E0
39C0
3FC0
0F00
ENDCHAR
STARTCHAR uni0151
COMMENT karakter: o-hungarumlaut (o, dupla ekezet) (U+0151)
ENCODING 337
SWIDTH 600 0
DWIDTH 12 0
BBX 12 16 0 -19
BITMAP
06C0
0CC0
0980
1B00
0000
0F00
3FC0
39C0
70E0
70E0
70E0
70E0
70E0
39C0
3FC0
0F00
ENDCHAR
STARTCHAR uni00FA
COMMENT karakter: u-aigu (U+00FA)
ENCODING 250
SWIDTH 600 0
DWIDTH 12 0
BBX 12 16 0 -19
BITMAP
01C0
0380
0300
0600
0000
31C0
31C0
31C0
31C0
31C0
31C0
31C0
31C0
39C0
3FC0
1FC0
ENDCHAR
STARTCHAR uni00FC
COMMENT karakter: u-umlaut (u, ket pont) (U+00FC)
ENCODING 252
SWIDTH 600 0
DWIDTH 12 0
BBX 12 15 0 -19
BITMAP
1980
1980
0000
0000
31C0
31C0
31C0
31C0
31C0
31C0
31C0
31C0
39C0
3FC0
1FC0
ENDCHAR
STARTCHAR uni0171
COMMENT karakter: u-hungarumlaut (u, dupla ekezet) (U+0171)
ENCODING 369
SWIDTH 600 0
DWIDTH 12 0
BBX 12 16 0 -19
BITMAP
06C0
0CC0
0980
1B00
0000
31C0
31C0
31C0
31C0
31C0
31C0
31C0
31C0
39C0
3FC0
1FC0
ENDCHAR

COMMENT ============================================================
COMMENT Magyar ekezetes NAGYbetuk (9 glyph)
COMMENT Ha nincs szukseg ra, ez a teljes blokk (STARTCHAR..ENDCHAR)
COMMENT biztonsagosan torolheto a fajl merethez, memoriahoz.
COMMENT ============================================================
STARTCHAR uni00C1
COMMENT karakter: A-aigu (nagybetu) (U+00C1)
ENCODING 193
SWIDTH 600 0
DWIDTH 12 0
BBX 12 19 0 -19
BITMAP
0380
0300
0600
0000
0F00
0F00
0F00
1F80
1F80
1980
1980
39C0
39C0
3FC0
3FE0
70E0
70E0
70E0
E070
ENDCHAR
STARTCHAR uni00C9
COMMENT karakter: E-aigu (nagybetu) (U+00C9)
ENCODING 201
SWIDTH 600 0
DWIDTH 12 0
BBX 12 19 0 -19
BITMAP
0380
0300
0600
0000
3FE0
3FE0
3800
3800
3800
3800
3FC0
3FC0
3800
3800
3800
3800
3800
3FE0
3FE0
ENDCHAR
STARTCHAR uni00CD
COMMENT karakter: I-aigu (nagybetu) (U+00CD)
ENCODING 205
SWIDTH 600 0
DWIDTH 12 0
BBX 12 19 0 -19
BITMAP
0380
0300
0600
0000
3FC0
3FC0
0600
0600
0600
0600
0600
0600
0600
0600
0600
0600
0600
3FC0
3FC0
ENDCHAR
STARTCHAR uni00D3
COMMENT karakter: O-aigu (nagybetu) (U+00D3)
ENCODING 211
SWIDTH 600 0
DWIDTH 12 0
BBX 12 19 0 -19
BITMAP
0380
0300
0600
0000
0F00
1F80
39C0
70E0
70E0
70E0
70E0
70E0
70E0
70E0
70E0
70E0
39C0
1F80
0F00
ENDCHAR
STARTCHAR uni00D6
COMMENT karakter: O-umlaut (nagybetu) (U+00D6)
ENCODING 214
SWIDTH 600 0
DWIDTH 12 0
BBX 12 19 0 -19
BITMAP
1980
1980
0000
0000
0F00
1F80
39C0
70E0
70E0
70E0
70E0
70E0
70E0
70E0
70E0
70E0
39C0
1F80
0F00
ENDCHAR
STARTCHAR uni0150
COMMENT karakter: O-hungarumlaut (nagybetu) (U+0150)
ENCODING 336
SWIDTH 600 0
DWIDTH 12 0
BBX 12 19 0 -19
BITMAP
0EC0
0DC0
1980
0000
0F00
1F80
39C0
70E0
70E0
70E0
70E0
70E0
70E0
70E0
70E0
70E0
39C0
1F80
0F00
ENDCHAR
STARTCHAR uni00DA
COMMENT karakter: U-aigu (nagybetu) (U+00DA)
ENCODING 218
SWIDTH 600 0
DWIDTH 12 0
BBX 12 19 0 -19
BITMAP
0380
0300
0600
0000
70E0
70E0
70E0
70E0
70E0
70E0
70E0
70E0
70E0
70E0
70E0
70E0
79E0
3FC0
1F80
ENDCHAR
STARTCHAR uni0170
COMMENT karakter: U-hungarumlaut (nagybetu) (U+0170)
ENCODING 368
SWIDTH 600 0
DWIDTH 12 0
BBX 12 19 0 -19
BITMAP
0EC0
0DC0
1980
0000
70E0
70E0
70E0
70E0
70E0
70E0
70E0
70E0
70E0
70E0
70E0
70E0
79E0
3FC0
1F80
ENDCHAR
STARTCHAR uni00DC
COMMENT karakter: U-umlaut (nagybetu) (U+00DC)
ENCODING 220
SWIDTH 600 0
DWIDTH 12 0
BBX 12 19 0 -19
BITMAP
1980
1980
0000
0000
70E0
70E0
70E0
70E0
70E0
70E0
70E0
70E0
70E0
70E0
70E0
70E0
79E0
3FC0
1F80
ENDCHAR

COMMENT ============================================================
COMMENT Bonus: villamos/mertek jelek (opcionalis, torolheto) (6 glyph)
COMMENT Ha nincs szukseg ra, ez a teljes blokk (STARTCHAR..ENDCHAR)
COMMENT biztonsagosan torolheto a fajl merethez, memoriahoz.
COMMENT ============================================================
STARTCHAR uni00B0
COMMENT karakter: fok jel (degree) (U+00B0)
ENCODING 176
SWIDTH 600 0
DWIDTH 12 0
BBX 12 15 0 -19
BITMAP
0F00
1F80
1980
1080
1980
1F80
0F00
0000
0000
0000
0000
0000
0000
0000
0000
ENDCHAR
STARTCHAR uni03A9
COMMENT karakter: Ohm jel (nagy omega) (U+03A9)
ENCODING 937
SWIDTH 600 0
DWIDTH 12 0
BBX 12 14 0 -19
BITMAP
0F00
1F80
3FC0
79E0
70E0
70E0
70E0
70E0
70E0
70E0
39C0
1980
7DE0
7DE0
ENDCHAR
STARTCHAR uni00B5
COMMENT karakter: mikro jel (mu) (U+00B5)
ENCODING 181
SWIDTH 600 0
DWIDTH 12 0
BBX 12 15 0 -23
BITMAP
38E0
38E0
38E0
38E0
38E0
38E0
38E0
38E0
39E0
3FF0
3F60
3800
3800
3800
3800
ENDCHAR
STARTCHAR uni00B1
COMMENT karakter: plusz-minusz (U+00B1)
ENCODING 177
SWIDTH 600 0
DWIDTH 12 0
BBX 12 12 0 -19
BITMAP
0600
0600
0600
7FE0
7FE0
0600
0600
0600
0000
0000
7FE0
7FE0
ENDCHAR
STARTCHAR uni00D7
COMMENT karakter: szorzas jel (U+00D7)
ENCODING 215
SWIDTH 600 0
DWIDTH 12 0
BBX 12 11 0 -19
BITMAP
2040
70E0
39C0
1F80
0F00
0F00
1F80
39C0
70E0
2040
0000
ENDCHAR
STARTCHAR uni00F7
COMMENT karakter: osztas jel (U+00F7)
ENCODING 247
SWIDTH 600 0
DWIDTH 12 0
BBX 12 11 0 -19
BITMAP
0F00
0F00
0F00
0000
7FE0
7FE0
0000
0F00
0F00
0F00
0000
ENDCHAR

ENDFONT
